<svg xmlns="http://www.w3.org/2000/svg" viewBox="0 0 500 500"><g id="freepik--Floor--inject-1"><ellipse id="freepik--floor--inject-1" cx="250.55" cy="352.47" rx="229.98" ry="132.54" style="fill:#f5f5f5"></ellipse></g><g id="freepik--Shadows--inject-1"><path id="freepik--Shadow--inject-1" d="M220.78,369,141,415.1c-2,1.13-2,3,0,4.11l79.83,46.09a7.9,7.9,0,0,0,7.12,0l79.82-46.09c2-1.14,2-3,0-4.11L227.9,369A7.9,7.9,0,0,0,220.78,369Z" style="fill:#e0e0e0"></path><path id="freepik--shadow--inject-1" d="M343,325.17l-72.06,41.6c-1.77,1-1.77,2.69,0,3.71L343,412.09a7.12,7.12,0,0,0,6.42,0l72.06-41.61c1.78-1,1.78-2.68,0-3.71l-72.06-41.6A7.12,7.12,0,0,0,343,325.17Z" style="fill:#e0e0e0"></path><ellipse id="freepik--shadow--inject-1" cx="110.86" cy="354.33" rx="85.59" ry="49.42" style="fill:#e0e0e0"></ellipse><path id="freepik--shadow--inject-1" d="M382,286.47c-15.84,9.14-15.84,24,0,33.13s41.54,9.15,57.39,0,15.84-24,0-33.13S397.8,277.32,382,286.47Z" style="fill:#e0e0e0"></path></g><g id="freepik--Pictures--inject-1"><g id="freepik--Picture--inject-1"><g id="freepik--Frame--inject-1"><polygon points="68.92 116.74 70.59 117.74 104.93 97.92 103.25 96.92 68.92 116.74" style="fill:#fafafa"></polygon><polygon points="103.25 96.92 70.59 115.77 70.59 81.57 103.25 62.72 103.25 96.92" style="fill:#fff"></polygon><path d="M108.08,56.27,67.43,79.74v43.47l40.65-23.47Zm-3.15,41.65L70.59,117.74V81.57l34.34-19.83Z" style="fill:#f0f0f0"></path><polygon points="104.93 97.92 103.25 96.92 103.25 62.72 104.93 61.74 104.93 97.92" style="fill:#e0e0e0"></polygon><polygon points="108.08 56.27 106.39 55.3 65.73 78.77 67.43 79.74 108.08 56.27" style="fill:#fafafa"></polygon><polygon points="65.73 78.77 67.43 79.74 67.43 123.21 65.73 122.24 65.73 78.77" style="fill:#e0e0e0"></polygon></g><g id="freepik--Land--inject-1"><polygon points="101.98 95.89 71.86 113.28 71.86 104.59 79.39 87.2 84.08 91.55 82.4 98.83 92.8 76.6 101.98 87.2 101.98 95.89" style="fill:#f0f0f0"></polygon><path d="M83.8,78.81a4.91,4.91,0,0,0-2.23,3.85c0,1.43,1,2,2.23,1.29A4.93,4.93,0,0,0,86,80.09C86,78.67,85,78.1,83.8,78.81Z" style="fill:#f0f0f0"></path></g></g><g id="freepik--picture--inject-1"><g id="freepik--frame--inject-1"><polygon points="123.14 119.47 124.81 120.47 159.15 100.65 157.47 99.65 123.14 119.47" style="fill:#fafafa"></polygon><polygon points="157.47 99.65 124.81 118.5 124.81 84.3 157.47 65.45 157.47 99.65" style="fill:#fff"></polygon><path d="M162.3,59,121.65,82.48v43.46l40.65-23.47Zm-3.16,41.65-34.33,19.82V84.3l34.34-19.83Z" style="fill:#f0f0f0"></path><polygon points="159.15 100.65 157.47 99.65 157.47 65.45 159.15 64.47 159.15 100.65" style="fill:#e0e0e0"></polygon><polygon points="162.3 59.01 160.6 58.03 119.95 81.5 121.65 82.47 162.3 59.01" style="fill:#fafafa"></polygon><polygon points="119.95 81.5 121.65 82.47 121.65 125.94 119.95 124.97 119.95 81.5" style="fill:#e0e0e0"></polygon></g><g id="freepik--land--inject-1"><polygon points="156.2 98.63 126.08 116.01 126.08 107.32 133.61 89.93 138.3 94.28 136.62 101.57 147.01 79.33 156.2 89.93 156.2 98.63" style="fill:#f0f0f0"></polygon><path d="M138,81.54a4.93,4.93,0,0,0-2.23,3.86c0,1.42,1,2,2.23,1.28a4.93,4.93,0,0,0,2.23-3.86C140.25,81.4,139.25,80.83,138,81.54Z" style="fill:#f0f0f0"></path></g></g><g id="freepik--picture--inject-1"><g id="freepik--frame--inject-1"><polygon points="449.96 156.62 448.29 157.62 413.95 137.8 415.62 136.8 449.96 156.62" style="fill:#fafafa"></polygon><polygon points="415.62 136.8 448.29 155.65 448.29 73.1 415.62 54.26 415.62 136.8" style="fill:#fff"></polygon><path d="M410.79,139.62l40.65,23.47V71.28L410.79,47.81ZM414,53.28,448.29,73.1v84.52L414,137.8Z" style="fill:#f0f0f0"></path><polygon points="413.95 137.8 415.62 136.8 415.62 54.26 413.95 53.28 413.95 137.8" style="fill:#e0e0e0"></polygon><polygon points="410.79 47.81 412.49 46.84 453.14 70.31 451.44 71.28 410.79 47.81" style="fill:#fafafa"></polygon><polygon points="453.14 70.31 451.44 71.28 451.44 163.09 453.14 162.12 453.14 70.31" style="fill:#e0e0e0"></polygon></g><g id="freepik--land--inject-1"><polygon points="418.07 134.84 445.84 150.87 445.84 76.06 418.07 60.03 418.07 134.84" style="fill:#f0f0f0"></polygon></g><g id="freepik--land--inject-1"><polygon points="418.07 134.84 445.84 150.87 445.84 76.06 418.07 60.03 418.07 134.84" style="fill:#f0f0f0"></polygon></g><path d="M445.84,129.05a25.06,25.06,0,0,1-4,0,50.06,50.06,0,0,1-13.52-2.94c-3.36-1.24-6.72-2.85-10.28-3v11.71l3.76,2.18a12.73,12.73,0,0,1,5.16-2.87c5.35-1.4,10.83,1.29,16.33,1.92a23.62,23.62,0,0,0,2.52.12Z" style="fill:#fafafa"></path><path d="M445.84,109.77c-6.21-1.84-12.59-3.37-17-7.92-3.57-3.68-5.26-8.77-6.43-13.76s-2-10.13-4.24-14.73l-.08-.14v36.31c.35.52.7,1,1.07,1.55,4.08,5.52,10.09,10.14,16.95,10.5,3.22.16,6.55-.59,9.75-.58Z" style="fill:#fafafa"></path><path d="M445.84,91.3a18.92,18.92,0,0,1-6.15-17.23c.08-.46.19-.92.31-1.38l-10.68-6.17c0,.7.07,1.41.09,2.1.12,4.08,0,8.21.88,12.19a23.94,23.94,0,0,0,12.17,15.73A22.74,22.74,0,0,0,445.84,98Z" style="fill:#fafafa"></path></g></g><g id="freepik--Table--inject-1"><g id="freepik--table--inject-1"><g id="freepik--table--inject-1"><path d="M391.48,235a1.07,1.07,0,0,1,.64-.89,3.37,3.37,0,0,1,3.09,0,1.08,1.08,0,0,1,.64.89l-16.41,68.1h0a.77.77,0,0,1-.45.62,2.39,2.39,0,0,1-2.18,0,.75.75,0,0,1-.45-.62h0Z" style="fill:#455a64"></path><path d="M429.28,235a1.07,1.07,0,0,0-.64-.89,3.37,3.37,0,0,0-3.09,0,1.08,1.08,0,0,0-.64.89l16.4,68.1h0a.75.75,0,0,0,.45.62,2.39,2.39,0,0,0,2.18,0,.79.79,0,0,0,.45-.62h0Z" style="fill:#455a64"></path><path d="M412.83,237.28a1.09,1.09,0,0,0-.64-.9,3.43,3.43,0,0,0-3.09,0,1.08,1.08,0,0,0-.64.89l.64,76.81h0a.79.79,0,0,0,.45.62,2.42,2.42,0,0,0,2.19,0,.79.79,0,0,0,.45-.62h0Z" style="fill:#455a64"></path><path d="M449.78,218.68h0c0-5.78-3.78-11.56-11.42-16-15.29-8.82-40.06-8.82-55.35,0-7.64,4.41-11.43,10.2-11.42,16h0v3.1h0c.09,5.71,3.92,11.4,11.46,15.75,15.29,8.83,40.06,8.83,55.35,0,7.54-4.35,11.37-10,11.46-15.75h0Z" style="fill:#FF725E"></path><path d="M383,202.7c-15.28,8.83-15.28,23.13,0,32s40.06,8.83,55.35,0,15.28-23.12,0-32S398.26,193.88,383,202.7Z" style="fill:#FF725E"></path><path d="M383,202.7c-15.28,8.83-15.28,23.13,0,32s40.06,8.83,55.35,0,15.28-23.12,0-32S398.26,193.88,383,202.7Z" style="fill:#fff;opacity:0.45"></path></g><g id="freepik--Pot--inject-1"><g style="opacity:0.05"><path d="M419.22,211.21c4.87,2.82,4.87,7.38,0,10.19s-12.78,2.82-17.66,0-4.87-7.37,0-10.19S414.34,208.4,419.22,211.21Z"></path></g><path d="M402.63,216.94c-4.25-4.33-6.74-15.15-2.6-18.59H421.1c4.14,3.44,1.65,14.25-2.6,18.58l-.11.12-.15.15-.38.34a.39.39,0,0,0-.1.08l-.33.24a5.49,5.49,0,0,1-.54.35,14,14,0,0,1-12.65,0h0a4.62,4.62,0,0,1-.55-.35l-.3-.23-.13-.1-.37-.33-.17-.16Z" style="fill:#ebebeb"></path><path d="M419.27,197c4.8,2.77,4.8,7.27,0,10.05s-12.6,2.78-17.41,0-4.81-7.28,0-10.05S414.46,194.19,419.27,197Z" style="fill:#fafafa"></path><path d="M415.86,198.94c2.92,1.69,2.92,4.42,0,6.11a11.69,11.69,0,0,1-10.59,0c-2.93-1.69-2.93-4.42,0-6.11A11.69,11.69,0,0,1,415.86,198.94Z" style="fill:#ebebeb"></path><path d="M405.27,201.84a11.69,11.69,0,0,1,10.59,0,4.84,4.84,0,0,1,1.75,1.61,4.91,4.91,0,0,1-1.75,1.6,11.69,11.69,0,0,1-10.59,0,4.91,4.91,0,0,1-1.75-1.6A4.84,4.84,0,0,1,405.27,201.84Z" style="fill:#e0e0e0"></path><path d="M415.21,203.45a23.81,23.81,0,0,0,3.83-5.1c1.77-3.12,2.1-7.32,1.19-7.83s-4.64,3.66-4.64,3.66a22.46,22.46,0,0,0,.39-5.34c-.16-2.79-.83-5.32-1.63-5.83s-2.59,3-3.35,5.55-1.22,4.64-1.22,4.64a39.9,39.9,0,0,0-1.38-5.86c-.93-2.64-1.77-3.24-2.42-3s-1.08,1.5-1.28,5a35.37,35.37,0,0,0,.16,5s-1.31-1.44-2.77-2.84-2.28-1.75-2.74-1.46-.58,2.69,1.89,7.17a25.27,25.27,0,0,0,4.68,6.16S409.35,205.66,415.21,203.45Z" style="fill:#FF725E"></path><path d="M415.21,203.45a23.81,23.81,0,0,0,3.83-5.1c1.77-3.12,2.1-7.32,1.19-7.83s-4.64,3.66-4.64,3.66a22.46,22.46,0,0,0,.39-5.34c-.16-2.79-.83-5.32-1.63-5.83s-2.59,3-3.35,5.55-1.22,4.64-1.22,4.64a39.9,39.9,0,0,0-1.38-5.86c-.93-2.64-1.77-3.24-2.42-3s-1.08,1.5-1.28,5a35.37,35.37,0,0,0,.16,5s-1.31-1.44-2.77-2.84-2.28-1.75-2.74-1.46-.58,2.69,1.89,7.17a25.27,25.27,0,0,0,4.68,6.16S409.35,205.66,415.21,203.45Z" style="opacity:0.30000000000000004"></path></g></g></g><g id="freepik--character-2--inject-1"><g id="freepik--Girl--inject-1"><g id="freepik--Kid--inject-1"><path d="M216.08,200l17.45-9.44,5-19.23c2.57-9.19,9.08-12,9.08-12,10.09,3.27,9.86,10.55.33,35.21-2,5.21-3.25,5.82-9.36,8.64-3.89,1.79-6,2.14-13.35,5-1.83.7-4.29,1.56-5.84,2.2-2.62,1.08-4.12,2.23-7.49,3.74a26,26,0,0,1-8.12,1.95,11.22,11.22,0,0,1-5.89-.71,11.35,11.35,0,0,1-4.63-4.73,2.54,2.54,0,0,1,.25-3.19,3.45,3.45,0,0,1,1.89-.57c2.78-.33,5.67-.41,8.21-1.58a1.24,1.24,0,0,0,.78-.68c.19-.64-2.1-1.1-2.62-1.43a2.51,2.51,0,0,1-1.22-3.18c.25-.49,1.4.24,3.61.36,2.81.16,4.91-.69,7.82.22A5.32,5.32,0,0,0,216.08,200Z" style="fill:#ffa8a7"></path><path d="M249.87,158.69s3.72,1.26,5.28,7c.78,2.87.26,7.62-1.25,12.64-1.92,6.38-2.79,8.43-2.79,8.43s-6.63,2.35-15.89-3.71c0,0,2.66-10.3,3.41-13.73S240.19,158.94,249.87,158.69Z" style="fill:#f5f5f5"></path><path d="M256,297.37a4.2,4.2,0,0,0,.49-1.3,6.44,6.44,0,0,0-.66-4.27,10.39,10.39,0,0,1-1.1-5.13,52.56,52.56,0,0,1,.63-5.44c1.25-8.24,1.91-12.11,2.19-15.35a46.42,46.42,0,0,0-.33-12.26s4.11-12.56,5.84-19.73c2.77-11.43,4.64-20.28,3.66-30.22-.89-9,.16-12.76-5.43-18.77l-1-1.25s-19.39,19.54-20.49,22.92c-.67,11.1-1.1,24.39-1.46,34.84-.31,8.68.07,9.86,1.14,20.06.88,8.4,2.13,16.73,2.25,17.84.36,3.13,1.29,6.78.24,9.82-2.18,6.25-8.31,10-13.47,13.95-.91.7-1.89,1.54-1.92,2.64a2.63,2.63,0,0,0,1.6,2.23,11.35,11.35,0,0,0,3.51.75,16.48,16.48,0,0,0,3.9.3c2.2-.2,4.64-.31,6.67-1.22,1.82-.81,3.16-2.77,4.58-4.11a23.55,23.55,0,0,1,4.11-3.62C252.17,299.29,255.18,298.71,256,297.37Z" style="fill:#ffa8a7"></path><path d="M226.09,306.53a3.47,3.47,0,0,0,.42,2.34c.65.75,3,2.75,9.18,2.52,5.91-.23,9.37-2.88,10.58-4.36s2.32-2.94,3.52-4.14a10.22,10.22,0,0,1,4.06-2.08c1.16-.35,2.42-1,2.31-2.59C255.79,296.75,226.09,306.53,226.09,306.53Z" style="fill:#37474f"></path><path d="M254.7,287.1c0,.31,0,.64,0,1,0,0,.09,2.25-1.48,2.77-1.86.62-1.74-.66-3.14-1.7-3.06-2.28-7.73-1.82-8.62.11-1.18,2.56-5.35,7.32-6.85,8.62a32.54,32.54,0,0,1-3.89,3c-1.48,1-5.09,2.77-4.73,4.95s2.54,3.38,5.51,3.84a18.53,18.53,0,0,0,11.62-2.15c2.73-1.67,5.11-4.89,6.12-5.82,1.86-1.71,5.77-2.34,6.72-3.21a6.75,6.75,0,0,0,.66-5c-.38-1.94-.92-3.68-1-4.66S255.44,287.17,254.7,287.1Z" style="fill:#455a64"></path><path d="M235.33,300.7a8.72,8.72,0,0,0-4-.24,2.23,2.23,0,0,0-1.07.4c-1.48,1-4.76,2.71-4.41,4.9s2.47,3.51,5.44,4c2.73.43,7.52.39,10.9-1.73C242,304.92,239.36,301.89,235.33,300.7Z" style="fill:#f0f0f0"></path><path d="M307.84,291.88a6.72,6.72,0,0,0-2-2.75,34.16,34.16,0,0,1-2.95-2.53,11.32,11.32,0,0,1-1.69-3.16c-.3-.67-1-2.94-2-6-2.48-8-4-12.91-5.4-15.89a41.43,41.43,0,0,0-7.41-11.51s-.69-13.84-1-21.18c-.4-10.84-1.75-22.54-7.33-30.11-5.46-7.41-10.1-9.8-17.87-13l-1.51-.72s-2.6,34.23-1,32.74c2.07,8.84,4.8,19.22,7.08,28.31,2,8.19,2.59,9.7,8.66,18.35,5,7.05,7.42,10.45,12.84,19,2.35,3.71,5.14,6.92,5.68,11.3a22.89,22.89,0,0,1-4.71,16.72,3.31,3.31,0,0,0-1,2c.05,1.06,1.22,1.75,2.3,2.09a12.64,12.64,0,0,0,8.15-.21c4.34-1.63,7.56-5.92,7.26-10.36a12.26,12.26,0,0,1,1.52-7.28c.76-1.25,2.45-3.15,2.53-4.59A3.26,3.26,0,0,0,307.84,291.88Z" style="fill:#ffa8a7"></path><path d="M286.3,315.72a3.6,3.6,0,0,0,2.9,2.56,14.36,14.36,0,0,0,10.8-2.19c4.66-3.13,5.27-5.72,5.48-8.07s-.51-5.7.36-7.48,2.62-3.62,2.93-5a7.07,7.07,0,0,0-.35-3.21Z" style="fill:#37474f"></path><path d="M302.87,286.6s.49.8.59,1a4.74,4.74,0,0,1-1.64,4.92c-.72.59-2.29,0-3.61-.13a7.85,7.85,0,0,0-6.51,2.47c.13,4,.24,6.34-.94,9.54a35.3,35.3,0,0,1-2.86,4.81c-1.15,1.37-3.17,3.59-2.11,5.57a4.38,4.38,0,0,0,2.63,1.89,13.71,13.71,0,0,0,10.64-1.64,10.21,10.21,0,0,0,5.37-8.24c.35-2.63-.27-5.44.79-7.37s3.12-3.33,3.5-6a3.94,3.94,0,0,0-1.62-3.26C304.81,288.2,303.51,285.8,302.87,286.6Z" style="fill:#455a64"></path><path d="M299.43,309.21a9.82,9.82,0,0,0-11-.63h0a6,6,0,0,0-.71.73c-1.15,1.37-3.17,3.48-2.11,5.46,0,0,.46,1.32,2.7,2a14.3,14.3,0,0,0,10.79-1.71,13,13,0,0,0,2.52-1.94l.09-.09.06-.08A7.08,7.08,0,0,0,299.43,309.21Z" style="fill:#f0f0f0"></path><path d="M238.58,206c-.58,12.58-.8,32.45-.8,32.45s3.31,3.44,12.55,4.1,10.9,0,10.9,0L262.3,239l1.06,4.33s4,1.49,12.8,0c9.83-1.67,11.17-5.17,11.17-5.17s-.19-13.54-.9-21-6.07-19.57-6.07-19.57Z" style="fill:#455a64"></path><path d="M262.3,239l-3.16-12.3a21.49,21.49,0,0,1-9.37-2.23s2,3.71,8.18,4.45L261,239l.25,3.55Z" style="fill:#37474f"></path><path d="M277.8,159.73c3.91.69,5.76,3.79,6.62,7.67.42,1.92.19,4.22-.38,8.3s.17,22.12.17,22.12l1.89,14c-6.29,6.85-34.4,11.64-48.15,1.6,0,0,.51-34,1.54-40.91,1.4-9.37,5.54-11.86,9.51-13.56a27.1,27.1,0,0,1,5.64-1l14.65-.17Z" style="fill:#FF725E"></path><g style="opacity:0.6000000000000001"><path d="M277.8,159.73c3.91.69,5.76,3.79,6.62,7.67.42,1.92.19,4.22-.38,8.3s.17,22.12.17,22.12l1.89,14c-6.29,6.85-34.4,11.64-48.15,1.6,0,0,.51-34,1.54-40.91,1.4-9.37,5.54-11.86,9.51-13.56a27.1,27.1,0,0,1,5.64-1l14.65-.17Z" style="fill:#fff"></path></g><g id="freepik--Chest--inject-1"><path d="M244.76,123.11a13.24,13.24,0,0,0-2.69-.67,13.82,13.82,0,0,0-6.06,1c-1.43.49-3.37,1.63-4.3.57a2.94,2.94,0,0,1-.39-2.94A7.87,7.87,0,0,1,233.5,118a10.61,10.61,0,0,0-3.15.08c-1.57.16-1.35-1.94-.86-2.7a6.65,6.65,0,0,1,1.87-1.88,7.64,7.64,0,0,1,3.33-1.31,6.65,6.65,0,0,1-1.61-1.42,2.1,2.1,0,0,1-.22-2.24,2.56,2.56,0,0,1,1.71-1.32,5.87,5.87,0,0,1,2.21,0,17.75,17.75,0,0,1,9,4,14,14,0,0,1,3.32,3.75,15.93,15.93,0,0,1,1.85,4.81,5.93,5.93,0,0,1,0,2.41,3.54,3.54,0,0,1-1.53,2.05,3.1,3.1,0,0,1-2.07-.22C246.5,123.76,245.64,123.41,244.76,123.11Z" style="fill:#37474f"></path><path d="M247.4,111.74s-5.57-2.4-6.82-1.06-1,8,2.6,7.34a5.4,5.4,0,0,0,4.23-4.24s6.34,3.18,7.28-.37c.57-2.13-.05-5.25-2.08-5.62C250.16,107.35,247.4,111.74,247.4,111.74Z" style="fill:#FF725E"></path><path d="M269.08,153.45c3.86-4.19,9.08-7.07,11.31-14.52,2.51-8.39.07-16.19-4.91-17.65,0,0-.35-6.15-8-9.34-6.07-2.52-15.32-1.65-20.94,1.65a17.56,17.56,0,0,0-7.21,7.18A17.11,17.11,0,0,0,238,132.11a11.4,11.4,0,0,0,4.78,6.12,25.9,25.9,0,0,0,7.25,3.1c1.58.45,3.17.86,4.75,1.33a12.69,12.69,0,0,1,2.42.79,8.29,8.29,0,0,1,1.37,1.28l7.88,7.27A5.75,5.75,0,0,0,269.08,153.45Z" style="fill:#37474f"></path><path d="M269.08,139.26a.83.83,0,0,0,.21.16c1.13.7,1.07-1.24,2.14-2.55a2.91,2.91,0,0,1,2.38-1,3.7,3.7,0,0,1,3.51,2.08,5.44,5.44,0,0,1-3.13,7.14,4.4,4.4,0,0,1-4.76-.87l-.74,14.41a24.41,24.41,0,0,1-9.49,5.83c-7.47,2.34-9.16-1.95-6-5.06l-.11-4.1a18.65,18.65,0,0,1-5.74-.72,11,11,0,0,1-7.24-8.46c-.57-2.78.24-5.28.18-8.11,0-1.69-.2-4.34-.18-5.43a11.58,11.58,0,0,1,.43-2.86c6.89-1.91,12,1.52,19.91,1,0,0,.76-4.39,2.94-6a10.84,10.84,0,0,0,1,6,11.4,11.4,0,0,0,4.17,4.54,6.76,6.76,0,0,0,.12,3.16A2.27,2.27,0,0,0,269.08,139.26Z" style="fill:#ffa8a7"></path><path d="M253.05,155.31c3.73-.31,6.4-.57,10.61-3.41a11.19,11.19,0,0,0,3.83-5.11s-.72,4.19-2.33,6c-4.23,4.78-12,4.57-12,4.57Z" style="fill:#f28f8f"></path><path d="M256.48,137.06a1.69,1.69,0,0,0,1.56,1.83,1.74,1.74,0,1,0-1.56-1.83Z" style="fill:#263238"></path><path d="M257.2,144.92l-6.44,2a3.31,3.31,0,0,0,4.15,2.35A3.53,3.53,0,0,0,257.2,144.92Z" style="fill:#b16668"></path><path d="M257.17,147a2.73,2.73,0,0,0-1.41-.37,2.78,2.78,0,0,0-2.73,2.67,3.25,3.25,0,0,0,1.88,0A3.44,3.44,0,0,0,257.17,147Z" style="fill:#f28f8f"></path><path d="M242.2,136.31a1.67,1.67,0,1,0,1.77-1.64A1.71,1.71,0,0,0,242.2,136.31Z" style="fill:#263238"></path><polygon points="250.87 137.23 250.56 143.68 246 141.82 250.87 137.23" style="fill:#f28f8f"></polygon><path d="M264.46,141.13c.14,1.46-1.23,2.78-3,3s-3.41-.86-3.55-2.31,1.22-2.78,3-3S264.32,139.68,264.46,141.13Z" style="fill:#f28f8f;opacity:0.5"></path><path d="M244.52,141.26c-.29,1.44-2,2.31-3.77,2s-3-1.81-2.73-3.25,2-2.3,3.77-1.94S244.81,139.83,244.52,141.26Z" style="fill:#f28f8f;opacity:0.5"></path><path d="M277.54,124a13.37,13.37,0,0,1,2.44,1.32,13.78,13.78,0,0,1,3.79,4.84c.73,1.32,1.4,3.47,2.8,3.31a2.91,2.91,0,0,0,2.26-1.91,7.73,7.73,0,0,0,.45-3.75,10.72,10.72,0,0,1,2.28,2.19c1.06,1.17,2.3-.53,2.45-1.42a6.65,6.65,0,0,0-.12-2.66,7.63,7.63,0,0,0-1.58-3.2,7,7,0,0,0,2.14,0,2.1,2.1,0,0,0,1.67-1.52,2.52,2.52,0,0,0-.38-2.12,5.7,5.7,0,0,0-1.62-1.51,17.6,17.6,0,0,0-9.41-3.07,14,14,0,0,0-5,.54,15.93,15.93,0,0,0-4.6,2.32,5.9,5.9,0,0,0-1.6,1.81,3.54,3.54,0,0,0-.24,2.54A3,3,0,0,0,275,123C275.81,123.33,276.69,123.65,277.54,124Z" style="fill:#37474f"></path><path d="M276.28,121s1.3,5.93,3.11,6.16,5.87-5,4.45-6.39c-2.61-2.56-6.78-.68-6.78-.68s.07-6.07-2.22-6.37c-1.61-.22-5.7,3.49-4.81,5.35C271.09,121.36,276.28,121,276.28,121Z" style="fill:#FF725E"></path></g></g><g id="freepik--teddy-bear--inject-1"><path d="M217.37,196.79c-.74-2.78-6.22-.61-12.78.87a39.51,39.51,0,0,1-13.43.66c-2.26-.13-5.51,3.57-4.35,8.67,1.49,6.58,6.69,5.54,6.69,5.54A53.42,53.42,0,0,0,205.67,209C213.23,205.62,218.18,199.82,217.37,196.79Z" style="fill:#9a4a4d"></path><path d="M223,214c.74,6.64-5.41,28.44-8.33,33.22-1.84,1.91-9.74.92-10.08-2.2,0,0,.34-6.92-.44-10.77a50.57,50.57,0,0,0-2.39-7.85S217.44,228.21,223,214Z" style="fill:#9a4a4d"></path><path d="M204.67,239.94a5.75,5.75,0,0,1,4.87,2.24,7.44,7.44,0,0,0-4.85-.84C204.69,240.89,204.68,240.42,204.67,239.94Z" style="opacity:0.2"></path><path d="M214.69,247.19c-1,1.29-3.5,3-8.35,2.65s-7-1.8-7.56-3.73a3.43,3.43,0,0,1,2.61-4,17.09,17.09,0,0,1,3.26-.76Z" style="fill:#9a4a4d"></path><path d="M239.76,216.55c2.33,6.27,1.63,28.91,0,34.25-1.33,2.3-9.23,3.24-10.31.31a54.33,54.33,0,0,0-2.95-8.93,17,17,0,0,0-4.17-5.54S237.8,231.72,239.76,216.55Z" style="fill:#9a4a4d"></path><path d="M228.41,247.46l-.42-1.33c5.34-.46,7.34,2.89,7.34,2.89C234.3,248.38,231.1,246.67,228.41,247.46Z" style="opacity:0.2"></path><path d="M240.38,221.05c-.69,9.37-6.8,13.26-12.54,14.76a27.78,27.78,0,0,1-7.69.85c-5.55-.15-15.63-1.51-18.8-11.48-.18-.61-.35-1.23-.49-1.89-2.43-11.69,6.81-18.06,6.81-18.06,2.27-9.29,7.91-12,12.55-11.8C230.62,193.78,241.41,207,240.38,221.05Z" style="fill:#b16668"></path><path d="M241.11,220.85c-1.52,9.28-7.53,13.46-13.27,15a27.78,27.78,0,0,1-7.69.85c-5.55-.15-15.63-1.51-18.8-11.48-.18-.61-.35-1.23-.49-1.89-2.43-11.69,6.81-18.06,6.81-18.06,2.27-9.29,7.91-12,12.55-11.8C230.62,193.78,243.51,206.14,241.11,220.85Z" style="fill:#b16668"></path><path d="M226.1,232.17c7.16-3.34,10.49-10.55,9.14-15.92s-4.69-8-5.28-11c0,0-3.88,3.4-7.44,2.35-2.79-.83-3.7-6.45-3.7-6.45s-5.41.58-8.42-2.41a11.14,11.14,0,0,1,9.82-5.28c10.4.35,23.29,12.71,20.89,27.42-1.52,9.28-7.53,13.46-13.27,15a27.78,27.78,0,0,1-7.69.85c-5.2-.14-14.36-1.35-18.11-9.68l0,0h0C205.92,233.58,218.82,235.56,226.1,232.17Z" style="opacity:0.1"></path><path d="M217,208.16c-8.48-1.64-14.76,4.45-14.79,12.29s10.57,13.27,20,8.93S227,210.11,217,208.16Z" style="fill:#f28f8f;opacity:0.5"></path><path d="M216.24,166.64c.62-2.41-5-8.82-10.74-4.18-5.24,4.24-.84,11.5,3.38,11.47S216.24,166.64,216.24,166.64Z" style="fill:#9a4a4d"></path><path d="M208.84,172.31c-2.16-.1-5.3-2.74-3.47-5.85a3.68,3.68,0,0,1,5.87-.89,5.69,5.69,0,0,1,1.16,3.84Z" style="fill:#f28f8f"></path><path d="M206.06,188.78a18.94,18.94,0,0,1,1.93-16.9c3.74-5.52,11.82-8.45,19.64-6.89s13.37,7.19,14.14,15.25c1,10.21-5.73,17-15.94,18a27.1,27.1,0,0,1-12.26-1.49C210.31,195.38,208,194,206.06,188.78Z" style="fill:#b16668"></path><path d="M224.27,198.33c.52,0,1,0,1.56-.07,10.21-1,16.92-7.81,15.94-18a18.43,18.43,0,0,0-3-8.36c.34.54-.81,2.43-.81,2.43,1.25,2.58,2.36,6.2,1.37,9.8C237.85,189.63,233.72,195.48,224.27,198.33Z" style="opacity:0.1"></path><path d="M218.62,183.25c-6.45-1.88-10.1-.35-11.82,3.89-1.63,4.05,1.38,10.22,8.87,11.37,3.8.59,8.35.57,10.25-3.11C228.16,191,224.41,184.94,218.62,183.25Z" style="fill:#f28f8f"></path><path d="M212.85,193.35a.44.44,0,0,1-.42-.38,8.06,8.06,0,0,1,.86-4.76.42.42,0,0,1,.57-.14.42.42,0,0,1,.15.58,7.34,7.34,0,0,0-.74,4.23.42.42,0,0,1-.37.46Z" style="fill:#37474f"></path><path d="M211.17,185.18c1.75-1.66,6-.08,6.39,1.31.5,1.79-2.5,4-4.73,3.15C211.47,189.14,209.63,186.65,211.17,185.18Z" style="fill:#9a4a4d"></path><path d="M235.08,172.11a3.49,3.49,0,0,1,.27-2.5c1-1.83,3.87-5.21,8.18-3.7,6.29,2.19,6.2,12.64-2.85,12.79a3.22,3.22,0,0,1-2.06-.69A11.18,11.18,0,0,1,235.08,172.11Z" style="fill:#9a4a4d"></path><path d="M235.45,173.33a11.34,11.34,0,0,0,2,3.58c5.09,1.21,6.73-3,5.79-5.26C242.26,169.16,237.16,168,235.45,173.33Z" style="fill:#f28f8f"></path><path d="M211.84,179.47a1.56,1.56,0,1,1-1.56-1.56A1.55,1.55,0,0,1,211.84,179.47Z" style="fill:#263238"></path><path d="M227,182a1.73,1.73,0,1,1-1.73-1.73A1.73,1.73,0,0,1,227,182Z" style="fill:#263238"></path><path d="M239.72,250.8c-.66,1.49-2.68,3.73-7.47,4.6s-7.19-.07-8.23-1.8a3.44,3.44,0,0,1,1.57-4.53,38.17,38.17,0,0,1,3.38-1.88Z" style="fill:#9a4a4d"></path></g><path d="M249.51,201.49,267,192.06l5-19.24c2.57-9.19,9.09-12,9.09-12,10.09,3.27,9.86,10.55.32,35.22-2,5.21-3.25,5.82-9.35,8.63-3.89,1.8-6,2.14-13.36,5-1.83.7-4.28,1.57-5.83,2.2-2.62,1.08-4.12,2.23-7.5,3.74a25.89,25.89,0,0,1-8.11,2,9.5,9.5,0,0,1-10.52-5.44,2.55,2.55,0,0,1,.25-3.2,3.56,3.56,0,0,1,1.89-.57c2.78-.32,5.67-.4,8.21-1.57a1.27,1.27,0,0,0,.78-.68c.19-.65-2.1-1.11-2.62-1.43a2.51,2.51,0,0,1-1.22-3.19c.25-.48,1.4.25,3.6.37,2.82.15,4.92-.7,7.83.22A5.38,5.38,0,0,0,249.51,201.49Z" style="fill:#ffa8a7"></path><path d="M279.15,160.09s7.87,1.34,9.43,7.09c.78,2.86.26,7.61-1.25,12.63-1.92,6.39-2.79,8.44-2.79,8.44s-6.63,2.34-15.89-3.72l3.41-13.72C272.72,169.16,275.4,162.34,279.15,160.09Z" style="fill:#f5f5f5"></path><path d="M230.87,198.9c-1.91,2.15,2.91,5.53,7.76,10.18a39.61,39.61,0,0,1,8,10.85c.67,1.65,6,2.64,9.63-1.14,4.68-4.87.94-8.64.94-8.64a53.8,53.8,0,0,0-9.69-8.18C240.51,197.49,233,196.56,230.87,198.9Z" style="fill:#9a4a4d"></path><path d="M234.27,198.7a2.44,2.44,0,0,1-.79-2.44c1.48-3.39,5.39-4.25,6.49-3.91,2,.6,2.54,7.15.63,8S234.26,199.09,234.27,198.7Z" style="fill:#FF725E"></path><path d="M234.64,197c.82-.45,4.19-2.59,4.48-1.89.36.89-3.7,2.14-3.7,2.14s4.13-.11,4,.91c-.12.68-4.38-.4-4.38-.4Z" style="opacity:0.1"></path><path d="M234.34,196.32l.21.18a2.46,2.46,0,0,1,.73,2.16,2.32,2.32,0,0,1-1.51,1.49A3.22,3.22,0,0,1,231,200a2.19,2.19,0,0,1-1-2.21C230.42,195.94,233,195.29,234.34,196.32Z" style="fill:#FF725E"></path><path d="M234.34,196.32l.21.18a2.46,2.46,0,0,1,.73,2.16,2.32,2.32,0,0,1-1.51,1.49A3.22,3.22,0,0,1,231,200a2.19,2.19,0,0,1-1-2.21C230.42,195.94,233,195.29,234.34,196.32Z" style="opacity:0.2"></path><path d="M231,197.49c-.48-1.1-5.48-4.06-8.11-1.84-1.37,1.15.16,7.22,1.92,7.74,2.54.76,5.95-1.93,6.41-3.84A2.5,2.5,0,0,0,231,197.49Z" style="fill:#FF725E"></path><path d="M231.24,198.05a4,4,0,0,1,.09.5c-.31.37-4.24,2.33-4.4,1.65s3.58-1.9,3.58-1.9-4.5-.33-4.32-1.15C226.31,196.62,230.7,197.68,231.24,198.05Z" style="opacity:0.1"></path></g></g><g id="freepik--character-1--inject-1"><g id="freepik--Character--inject-1"><g id="freepik--Bottom--inject-1"><path d="M112.43,369.72s-27.37-10-30.74-12.75c-2.82-2.29-1.13-7.78-5-8.71-4.51-1.08-7.73,1.33-10.62,4s-6.32,3.66-13.07,1.33-13.25-5.66-16-4.34-.91,3.44,10.89,8.89c6.78,3.13,15.42,6.77,21,9a46,46,0,0,1,11.2,6c7.22,5.05,8.54,6.13,17.08,11.24,17.06,10.23,27.1,12.92,40.68,10.35Z" style="fill:#f28f8f"></path><path d="M86.81,359.64c-5.44,3.13-8.06,6.59-8.38,12.61,0,0,3.67,2.85,9.48,6.87,7,4.81,23.79,15.77,35,16.91,17.43,1.78,23-3.47,23-3.47Z" style="fill:#455a64"></path><path d="M81.77,363.52c8.92,15,30.74,24.38,37.58,25.08-2.43-2-6-8.73-9.35-16L86.81,359.64A20,20,0,0,0,81.77,363.52Z" style="fill:#37474f"></path><path d="M30.58,348a3.68,3.68,0,0,1,.64-3.12,22.52,22.52,0,0,1,7.59-5.41A16.66,16.66,0,0,1,47,337.93c5.35.32,9.95,4.31,15.3,4.62,4,.23,7.62-1.8,11.51-2.75a12.4,12.4,0,0,1,3.74-.32c1.07.07,2.76.8,3.15,1.72a4.74,4.74,0,0,1,.29,3.43,9.49,9.49,0,0,1-2.79,2.85c-1.47,1-3.28,1.32-5.46,2C67.22,351.05,42.67,351.63,30.58,348Z" style="fill:#37474f"></path><path d="M81.82,355.47c0,.49.08,1,.13,1.45.07.66-.29.87-.84,1.25-2.26,1.54-5.09,1.39-7.66.94-2-.34-4-.91-6-.52-2.38.47-4.27,2.21-6.05,3.87a4.83,4.83,0,0,0-1,1.26s-13.8-5.9-20.07-9.21c-3.18-1.69-6.86-3.25-9.36-5.91-.13-.14.61-1.08.69-1.17a6,6,0,0,1,3.17-1.78,16.38,16.38,0,0,1,6.07-.4c3.09.46,6.08,1.27,9.14,1.87a75.84,75.84,0,0,0,8.31,1.17,63.1,63.1,0,0,0,9.12.15,22.82,22.82,0,0,0,8.31-1.76,11.94,11.94,0,0,0,2.85-1.75,8.81,8.81,0,0,0,1.3-1.67c.43-.62.69-1.64,1.13-.77a16.39,16.39,0,0,1,1.11,7.59c-.1,1.6-.31,3.19-.37,4.79C81.81,355.08,81.81,355.28,81.82,355.47Z" style="fill:#FF725E"></path><path d="M81.82,355.47c0,.49.08,1,.13,1.45.07.66-.29.87-.84,1.25-2.26,1.54-5.09,1.39-7.66.94-2-.34-4-.91-6-.52-2.38.47-4.27,2.21-6.05,3.87a4.83,4.83,0,0,0-1,1.26s-13.8-5.9-20.07-9.21c-3.18-1.69-6.86-3.25-9.36-5.91-.13-.14.61-1.08.69-1.17a6,6,0,0,1,3.17-1.78,16.38,16.38,0,0,1,6.07-.4c3.09.46,6.08,1.27,9.14,1.87a75.84,75.84,0,0,0,8.31,1.17,63.1,63.1,0,0,0,9.12.15,22.82,22.82,0,0,0,8.31-1.76,11.94,11.94,0,0,0,2.85-1.75,8.81,8.81,0,0,0,1.3-1.67c.43-.62.69-1.64,1.13-.77a16.39,16.39,0,0,1,1.11,7.59c-.1,1.6-.31,3.19-.37,4.79C81.81,355.08,81.81,355.28,81.82,355.47Z" style="opacity:0.2"></path><path d="M45.87,346.15c-2.58,3.53-2.56,9.8-2.56,9.8s-4.44-1.86-8.79-4.29c-4.16-2.33-3.94-3.67-3.94-3.67a3.7,3.7,0,0,1,1.22-1.84,7.81,7.81,0,0,1,5.63-1.68A36.29,36.29,0,0,1,45.87,346.15Z" style="fill:#fafafa"></path><path d="M45.68,353.86a7,7,0,0,0-.26,3.1,3.45,3.45,0,0,0,1.37.64,12.25,12.25,0,0,1,.33-3.18C47.41,353.5,46,353,45.68,353.86Z" style="fill:#fafafa"></path><path d="M49.88,355.78a7,7,0,0,0-.29,3.11,3.73,3.73,0,0,0,1.39.63,11.43,11.43,0,0,1,.33-3.18C51.6,355.43,50.19,354.91,49.88,355.78Z" style="fill:#fafafa"></path><path d="M54.07,357.7a7,7,0,0,0-.26,3.08,3.34,3.34,0,0,0,1.37.67,12.79,12.79,0,0,1,.33-3.19C55.8,357.35,54.39,356.84,54.07,357.7Z" style="fill:#fafafa"></path><path d="M81.07,342.49a2.69,2.69,0,0,0-.41-1.29s-1.38,2.83-6.32,4.47c-4.68,1.55-11.37,2.31-21,.08s-15.22-4.3-19.58-2.57S30.58,348,30.58,348s2.09-3.84,8.21-3.12c5.89.7,14.57,3.82,22.65,4.12C69.87,349.3,78.4,348.22,81.07,342.49Z" style="fill:#e0e0e0"></path><path d="M179.15,360.79C175,347.63,163.61,340,153.51,331.48s-26.24-22.68-26.24-22.68h0L63.72,296.15A305.12,305.12,0,0,0,63.27,329c.45,9.83,3,23,20.2,35.81,10.44,7.75,18.78,13.84,26.26,18.59,7.91,5,25.36,13.88,35.66,10.4A12.9,12.9,0,0,0,154,378.17h0c1.21.11,2.42.18,3.53.19,1.31,0,2.5,0,3.44,0a28.88,28.88,0,0,0,10-1.52C178.12,374.22,181.57,368.42,179.15,360.79Z" style="fill:#455a64"></path><path d="M156.47,377.75c-1.11,0-2.32-.07-3.53-.19-6.35-13.55-41.24-41.28-41.24-41.28,2.82-1.37,9.35-4.87,11.54-8.8-.89,5-3.77,7.55-6.55,9.58,4.28,3.84,22.27,19,27.07,23.56C148.8,365.42,154,371,156.47,377.75Z" style="fill:#37474f"></path></g><g id="freepik--Top--inject-1"><path d="M119.08,279.05c2.42,6.5,19,12,33.71,16.1,5.16,1.45,10.49,2.47,15.39,4.61a61.55,61.55,0,0,0,17.57,4.72,20.2,20.2,0,0,0,6.54-.09,20.88,20.88,0,0,0,7-3.4,9.42,9.42,0,0,0,2.86-2.61,3.15,3.15,0,0,0-2.06-5.13,11.15,11.15,0,0,0-2.77-.12,40.35,40.35,0,0,1-12.26-1c-.94-.25-.85-.88-.1-1.22a9.2,9.2,0,0,1,1.3-.35,26.57,26.57,0,0,0,3.37-1.11c2-.86,4.42-2.35,4.3-4.88,0-.59-1.79-.53-7.24.06-3.81.4-5.91-.7-9.91.18a10.87,10.87,0,0,1-6.63-.34c-4-1.59-26.73-13.87-28.28-15.16,0,0-2.69-17.91-3.8-24.48-3.05-18.05-4.1-22.78-18.32-23.57,0,0,.47,38.25-.82,48.77C118.28,275.52,118.51,277.53,119.08,279.05Z" style="fill:#f28f8f"></path><path d="M118.36,262.89c17.72,5.75,22.93-3.61,22.93-3.61s-2.24-13.14-3.73-20.41-2.43-11.49-5.41-14.16-5.66-3.17-12.51-3.89Z" style="fill:#263238"></path><path d="M65.67,224.71a15.94,15.94,0,0,0-5,8.13c-.72,2.68-2,7.52.28,22.4A214.58,214.58,0,0,1,63.8,285L62.57,314.2c8.49,9.95,49.73,12.28,69.58-1.12,0,0,.1-48.36-1.3-65.32-.95-11.52-7.25-23.41-11.21-26.94l-7.81-.49L92,219.18Z" style="fill:#37474f"></path><g id="freepik--Head--inject-1"><path d="M121.82,183.48a10.19,10.19,0,0,0,3.87-5.07,18.2,18.2,0,0,0,.43-7.71,3.61,3.61,0,0,0-.49-1.65,3.73,3.73,0,0,0-2.86-1.19c-.68-.07-1.36-.13-2-.17a12.62,12.62,0,0,0,2.9-4.25,6.33,6.33,0,0,0,.07-3.78,2,2,0,0,0-.48-.9c-.59-.56-1.53-.37-2.31-.18a30,30,0,0,1-6.61.8c-2.17,0-4.29-.55-6.43-.57-3.86,0-7.65-.61-11.55-.37-8.15.5-16.16,3.89-17.68,12.25-6.55,1.95-5.81,12.7-4.18,17.44,3.31,9.63,9.81,18,9.92,22.93l1.07-.79,11.77-8.68,15.86-11.69,5.94-4.38C120,184.82,120.93,184.17,121.82,183.48Z" style="fill:#37474f"></path><path d="M121.8,206.11c-1.28,4.64-4,8-8.27,8.72a35.87,35.87,0,0,1-6.79,0l.17,5.91c6.66,6.61-13,11.56-22.25,1.21l-.61-20s-2.63,3-7,.16a9.46,9.46,0,0,1-3-11.58c2.15-4.53,6.45-2.65,7.78-1.28s2.86,4,4,3.61a4,4,0,0,0,2.66-2.73c.77-1.94.94-3,1-7.32,1.2-.61,3.5-1.63,4.37-2.86,1.78-2.51,1.53-3.89,1.61-6.12,9.28-2.91,19.53-3.8,23.39-.81,2.22,3.91,3.43,13.47,3.8,18.71C123.14,197.47,122.88,202.22,121.8,206.11Z" style="fill:#f28f8f"></path><path d="M106.74,214.86c-4.75-.26-14.31-2.48-16.86-5.14s-3.62-8.08-3.62-8.08.38,6.86,2.35,9.88,6.94,4.35,10,5.1a73.82,73.82,0,0,0,8.26,1.25Z" style="fill:#b16668"></path><path d="M104.51,189.67a1.93,1.93,0,1,1-1.93-2A2,2,0,0,1,104.51,189.67Z" style="fill:#263238"></path><path d="M101.91,183.5,98,186.12a2.46,2.46,0,0,1,.66-3.34A2.28,2.28,0,0,1,101.91,183.5Z" style="fill:#263238"></path><path d="M119.25,183.72l-4.47-1.55a2.27,2.27,0,0,1,2.93-1.51A2.48,2.48,0,0,1,119.25,183.72Z" style="fill:#263238"></path><path d="M118.94,188.68a1.94,1.94,0,0,1-1.91,2,2,2,0,1,1,1.91-2Z" style="fill:#263238"></path><polygon points="108.79 184.51 110.92 198.19 118.33 195.95 108.79 184.51" style="fill:#b16668"></polygon><path d="M103.5,202.21l6.5,1.44a3.27,3.27,0,0,1-3.9,2.64A3.49,3.49,0,0,1,103.5,202.21Z" style="fill:#b16668"></path><path d="M106.1,206.29a2.71,2.71,0,0,0,.4,0,3,3,0,0,0-3-2.94A3.44,3.44,0,0,0,106.1,206.29Z" style="fill:#ffa8a7"></path></g><g id="freepik--Clothes--inject-1"><path d="M97.92,298v7a3.09,3.09,0,0,0,1.54,2.67l50.26,29a3,3,0,0,0,3,.32L206,306.2a2.56,2.56,0,0,0,1.09-2.37,8.73,8.73,0,0,0-4.06-6.74l-51.8-29.9Z" style="fill:#455a64"></path><path d="M149.72,327.88,97.92,298v7a3.09,3.09,0,0,0,1.54,2.67l50.26,29c2.24,1.3,4.06.38,4.06-2.05A8.7,8.7,0,0,0,149.72,327.88Z" style="fill:#37474f"></path><path d="M147.35,329.44a2.89,2.89,0,0,1,1.35,2.25c0,.81-.6,1.11-1.35.68L97.92,303.84V300.9Z" style="fill:#263238"></path><path d="M207.1,288.44v7a3.09,3.09,0,0,1-1.54,2.67l-50.26,29a3,3,0,0,1-3,.32L99,296.67a2.57,2.57,0,0,1-1.09-2.37,8.7,8.7,0,0,1,4.06-6.74l51.8-29.91Z" style="fill:#FF725E"></path><g style="opacity:0.5"><path d="M207.1,288.44v7a3.09,3.09,0,0,1-1.54,2.67l-50.26,29a3,3,0,0,1-3,.32L99,296.67a2.57,2.57,0,0,1-1.09-2.37,8.7,8.7,0,0,1,4.06-6.74l51.8-29.91Z" style="fill:#fff"></path></g><path d="M155.3,318.34l51.8-29.9v7a3.09,3.09,0,0,1-1.54,2.67l-50.26,29c-2.24,1.29-4.06.37-4.06-2.06A8.73,8.73,0,0,1,155.3,318.34Z" style="opacity:0.2"></path><path d="M157.67,319.91a2.88,2.88,0,0,0-1.35,2.24c0,.81.6,1.12,1.35.69L207.1,294.3v-2.93Z" style="opacity:0.2"></path><path d="M97.92,278.41v7a3.11,3.11,0,0,0,1.54,2.68l50.26,29a3,3,0,0,0,3,.32L206,286.64a2.57,2.57,0,0,0,1.09-2.37,8.72,8.72,0,0,0-4.06-6.74l-51.8-29.9Z" style="fill:#FF725E"></path><path d="M149.72,308.32l-51.8-29.91v7a3.11,3.11,0,0,0,1.54,2.68l50.26,29c2.24,1.3,4.06.38,4.06-2.05A8.7,8.7,0,0,0,149.72,308.32Z" style="opacity:0.2"></path><path d="M147.35,309.88a2.89,2.89,0,0,1,1.35,2.25c0,.81-.6,1.11-1.35.68L97.92,284.27v-2.93Z" style="opacity:0.2"></path><path d="M159.64,262.71c-1-3.63-5.95-10.48-9.62-12.54s-11.91-1.5-18.6,1.31-13.79,7-15.87,9.84c-1.6,2.15-3.36,9.57-3.36,9.57,1,3.12,4.69,13.13,20.39,13.52a81.23,81.23,0,0,0,16.12-1.09l-.51-10.1,8.13,5.73S160.59,266.34,159.64,262.71Z" style="fill:#455a64"></path><path d="M119.63,267.87c-.78-3,.33-7.4,4-10.38s13.28-6.8,18.1-7.15,10,2.66,9.55,10.74Z" style="fill:#37474f"></path><path d="M127.37,261c-10.3,5.94-9.31,7.35-3.16,10.24,9,4.2,24,1.78,24,1.78s6-12.63,1.39-16.24S137.67,255.08,127.37,261Z" style="fill:#FF725E"></path><path d="M127.37,261c-10.3,5.94-9.31,7.35-3.16,10.24,9,4.2,24,1.78,24,1.78s6-12.63,1.39-16.24S137.67,255.08,127.37,261Z" style="opacity:0.2"></path><path d="M151.24,285.74l18.7,10.8a13.77,13.77,0,0,1,5.92,6.85l.08.21-1.16-1.69a13.66,13.66,0,0,0-4-3.86Z" style="opacity:0.2"></path><path d="M159.24,287a4.83,4.83,0,0,0,4.32,0,1.32,1.32,0,0,0,0-2.5,4.83,4.83,0,0,0-4.32,0A1.32,1.32,0,0,0,159.24,287Z" style="fill:#455a64"></path><path d="M169.4,292.85a4.75,4.75,0,0,0,4.31,0,1.31,1.31,0,0,0,0-2.49,4.75,4.75,0,0,0-4.31,0A1.31,1.31,0,0,0,169.4,292.85Z" style="fill:#455a64"></path></g><g id="freepik--Arm--inject-1"><path d="M38.2,297.33c2.42,6.51,19,12,33.71,16.1,7.11,2,21,5.67,23.71,6.66a84.69,84.69,0,0,0,11.82,2.7c4.4.71,5.86,1.14,10.35.35a58.06,58.06,0,0,0,5.81-1.55l-9.26-5.35L103,309.68c0-.71,10.31-1.53,10.06-6.82,0-.59-1.79-.52-7.25.06-3.8.41-5.9-.7-9.9.19a10.88,10.88,0,0,1-6.63-.35c-4-1.59-26.73-13.86-28.28-15.16l9.27-31.34s5.34-22.58-4.54-31.12c-9.06,1.44-13.33,3.43-16.85,16.77-6.11,23.17-9.53,35.89-10.82,46.42C37.4,293.8,37.63,295.81,38.2,297.33Z" style="fill:#f28f8f"></path><path d="M65.67,224.71c-4.75.85-8.59,1.27-12.18,5.69s-4.64,10.62-6.74,18-5.3,20-5.3,20,1.63,4,9.39,6.85a26.28,26.28,0,0,0,13.89,1.45s6.56-22.42,7.55-25.27S74.19,228.45,65.67,224.71Z" style="fill:#263238"></path></g></g></g></g><g id="freepik--speech-bubble--inject-1"><g id="freepik--charity-icon-bubble--inject-1"><path d="M360.06,125.36c4.13-4.09,7.94-9.56,7.94-16.53a14.58,14.58,0,0,0-28.36-4.77,32.67,32.67,0,0,1-5.48,8.34c-1.62,1.65-.54,4.17,3.12,3.1s6.27-6.17,10.19-4.65S360.06,125.36,360.06,125.36Z" style="fill:#FF725E"></path><path d="M311.43,111.19c1,8.27,7.38,14.22,12.26,18.09a81.2,81.2,0,0,0,8.58,5.91l6.56,3.84a1.57,1.57,0,0,0,1.62,0h0a1.6,1.6,0,0,0,.4-2.42l-5.39-6.23a1.14,1.14,0,0,1,.12-1.59h0a1.12,1.12,0,0,1,1.59.12l5.75,6.66a2.11,2.11,0,0,0,2.68.44l.06,0a2.12,2.12,0,0,0,.53-3.22l-5.52-6.4a1.11,1.11,0,0,1,.11-1.58h0a1.13,1.13,0,0,1,1.59.11l6.22,7.2a2.08,2.08,0,0,0,2.75.35l0,0a2.1,2.1,0,0,0,.41-3.1l-6.21-7.19a1.13,1.13,0,0,1,.11-1.59h0a1.11,1.11,0,0,1,1.58.11l6.39,7.4a2.19,2.19,0,0,0,3.08.24l.05,0a2.18,2.18,0,0,0,.32-3c-2.67-3.54-8.91-11.67-10.47-12.27a1.61,1.61,0,0,0-.62-.13c-.93,0-2.11.95-3.36,2a13.9,13.9,0,0,1-4.73,2.86,8.28,8.28,0,0,1-2.26.36,5.09,5.09,0,0,1-2.61-.67,3.91,3.91,0,0,1-1.63-1.85,4.35,4.35,0,0,1,1.08-4.75,28.69,28.69,0,0,0,3.69-5.08,29.09,29.09,0,0,0,1.62-3.32c.17-.4.36-.78.5-1.12v0a14.52,14.52,0,0,0-12.55-7C316.89,94.3,310.32,102.39,311.43,111.19Z" style="fill:#FF725E"></path><path d="M305.83,129.28s11.1-1,12-10l8.9,8.12C324.57,133.52,311.54,134.59,305.83,129.28Z" style="fill:#FF725E"></path></g></g><g id="freepik--Bloxes--inject-1"><g id="freepik--toy-box--inject-1"><polygon points="412.04 300.35 346.18 262.32 280.32 300.35 346.18 338.37 412.04 300.35" style="fill:#FF725E"></polygon><polygon points="412.04 300.35 346.18 262.32 280.32 300.35 346.18 338.37 412.04 300.35" style="fill:#fff;opacity:0.2"></polygon><polygon points="346.18 331.23 346.18 262.32 280.32 300.35 280.32 369.26 346.18 331.23" style="opacity:0.1"></polygon><polygon points="346.18 331.23 280.32 369.26 346.18 407.28 412.04 369.26 346.18 331.23" style="opacity:0.2"></polygon><g id="freepik--Bunny--inject-1"><path d="M359.38,274.34a3.82,3.82,0,0,1-2.07-2.11c-2.3-6.23-9.72-10.94-13.2-15-2.5-2.92-2.68-5.78,1.11-7.39,7.18-3,23.3,13.42,22.13,25.67A13.13,13.13,0,0,1,359.38,274.34Z" style="fill:#e6e6e6"></path><path d="M360.88,275a13.84,13.84,0,0,0,3.79.75c-.11-6.18-6.64-17.15-12.3-19.86-3.3-1.57-5.73-.3-4,2.1,1.6,2.17,2.6,2.09,6,6A40,40,0,0,1,360.88,275Z" style="fill:#ffa8a7"></path><path d="M351.39,335.09c-1.19,2.55-10.44,8.68-12.88,9.9a15.43,15.43,0,0,1-5.65,1.63c-4.42,0-6.92-2.39-8.93-7.63-1.33-3.46-2.38-12.12,2.76-14.09,5.77-2.18,9.94,3.56,9.94,3.56s6.09-2.45,10.26-1.78S352.56,332.52,351.39,335.09Z" style="fill:#f0f0f0"></path><path d="M333.57,332.22c-1.52-3.09-3.61-4.81-5.58-5.45a4,4,0,0,0-4.81,2.68,18.31,18.31,0,0,0,.75,9.54c1.87,4.87,4.17,7.25,8,7.58C337,346,335.91,337,333.57,332.22Z" style="fill:#e0e0e0"></path><path d="M332.63,341.15c0,2.49-1.52,3.64-3.39,2.56a8.1,8.1,0,0,1-3.39-6.48c0-2.49,1.51-3.64,3.39-2.56A8.12,8.12,0,0,1,332.63,341.15Z" style="fill:#f28f8f"></path><path d="M328.91,331.84c0,.94-.57,1.38-1.28,1a3.07,3.07,0,0,1-1.28-2.45c0-.95.57-1.38,1.28-1A3.06,3.06,0,0,1,328.91,331.84Z" style="fill:#f28f8f"></path><path d="M333,334.59c0,1-.58,1.38-1.29,1a3,3,0,0,1-1.28-2.45c0-.94.57-1.38,1.28-1A3.08,3.08,0,0,1,333,334.59Z" style="fill:#f28f8f"></path><path d="M325.93,333.59c0,1-.58,1.38-1.29,1a3.06,3.06,0,0,1-1.28-2.45c0-.94.57-1.38,1.28-1A3.08,3.08,0,0,1,325.93,333.59Z" style="fill:#f28f8f"></path><path d="M339.46,333.85a10.94,10.94,0,0,0-1.1-6c-1.05.34-1.73.61-1.73.61A21.16,21.16,0,0,1,339.46,333.85Z" style="opacity:0.1"></path><path d="M356.15,303c-4.66-1.29-15.89,8.9-16.95,10.8s.24,7.92,5.17,7.89c2.95,0,13-10.21,14.48-12.72S356.15,303,356.15,303Z" style="fill:#f0f0f0"></path><path d="M384.2,328.24c-1.43,9.8-8.15,13.42-14.3,14.56a29,29,0,0,1-8.14.31c-5.82-.57-16.31-2.78-18.89-13.49a20.34,20.34,0,0,1-.37-2c-1.67-12.47,9.53-16.45,9.53-16.45,1-8.81,8.21-14,13.08-13.46C376,298.84,386.36,313.53,384.2,328.24Z" style="fill:#f5f5f5"></path><path d="M365.11,297.68c-4.6-.49-11.33,4.1-12.86,12a15.79,15.79,0,0,0,6.13-1.84,3.41,3.41,0,0,0,3,2c2.36.19,3.21-.8,3.21-.8s3.36,4.33,5.67,5.51a7.24,7.24,0,0,0,4.81.46l1.91,9a12.16,12.16,0,0,1-8.59,14.31l-.63.16c-10.29,2.43-20.73.33-24.33-6.94h0c3.3,9.07,12.86,11,18.32,11.58a29,29,0,0,0,8.14-.31c6.15-1.14,12.87-4.76,14.3-14.56C386.36,313.53,376,298.84,365.11,297.68Z" style="fill:#e0e0e0"></path><path d="M378.17,304.55c-2.8,1.15-2.3,5.3-.74,11.71,1.83,7.45,7.54,23.81,7.54,23.81s2,3.37,8-.51,3.88-7.45,3.88-7.45S383.94,302.18,378.17,304.55Z" style="fill:#f0f0f0"></path><path d="M351.88,289.81a16.42,16.42,0,0,1,1.41-11,18.52,18.52,0,0,1,20-9.61c8.37,1.59,14.82,8.41,15.64,16.5,1,10.24-6,17.09-16.8,18.07a20.38,20.38,0,0,1-11.75-2.46A17.44,17.44,0,0,1,351.88,289.81Z" style="fill:#f5f5f5"></path><path d="M370.52,303.82c.54,0,1.09,0,1.64-.08,10.76-1,17.83-7.83,16.8-18.07a18,18,0,0,0-3.12-8.38c.36.54-.86,2.43-.86,2.43,1.32,2.59,2.49,6.22,1.45,9.83C384.83,295.09,380.47,301,370.52,303.82Z" style="opacity:0.1"></path><path d="M360.25,305.94s2.17-2.15,1.44-3.61c-3.44-3-9.54-6.05-11-5.59-2.69.82-3.55,10-.87,10.94S360.25,305.94,360.25,305.94Z" style="fill:#FF725E"></path><path d="M360.25,305.94s2.17-2.15,1.44-3.61c-3.44-3-9.54-6.05-11-5.59-2.69.82-3.55,10-.87,10.94S360.25,305.94,360.25,305.94Z" style="opacity:0.2"></path><path d="M359.75,303.63c-1.12-.62-5.72-3.53-6.11-2.57-.49,1.21,5,2.91,5,2.91s-5.63-.14-5.39,1.24c.17.93,6-.54,6-.54Z" style="opacity:0.1"></path><path d="M360.24,302.82l-.1.1a3.48,3.48,0,0,0-.86,1.75,3,3,0,0,0,0,1.55c.61,2.1,3.77,2.45,5.41,1.45a3,3,0,0,0,1.33-3,2.79,2.79,0,0,0-2.65-2.25c-.57,0-1.11,0-1.66-.08A1.94,1.94,0,0,0,360.24,302.82Z" style="fill:#FF725E"></path><path d="M360.24,302.82l-.1.1a3.48,3.48,0,0,0-.86,1.75,3,3,0,0,0,0,1.55c.61,2.1,3.77,2.45,5.41,1.45a3,3,0,0,0,1.33-3,2.79,2.79,0,0,0-2.65-2.25c-.57,0-1.11,0-1.66-.08A1.94,1.94,0,0,0,360.24,302.82Z" style="opacity:0.35000000000000003"></path><path d="M363.51,288.87c-5.1-1.7-8.89-1.15-10.4,2.58-1.43,3.55,1.76,9.23,8.33,10.24a12.94,12.94,0,0,0,4.51.05,5.37,5.37,0,0,0,4.2-7C369.2,292,366.74,290,363.51,288.87Z" style="fill:#ffa8a7"></path><path d="M358.7,297.37h-.07a.47.47,0,0,1-.4-.54l.46-3.2a.48.48,0,0,1,.95.14l-.46,3.2A.48.48,0,0,1,358.7,297.37Z" style="fill:#455a64"></path><path d="M356.71,290c1.84-1.76,6.32-.09,6.73,1.37.54,1.89-2.63,4.19-5,3.32C357,294.13,355.09,291.51,356.71,290Z" style="fill:#455a64"></path><path d="M364.73,304.28s10-5,13.54-2.16c1.91,1.52-.21,9.85-2.61,10.57-3.47,1-8.7-2.61-11.23-5.59A3.44,3.44,0,0,1,364.73,304.28Z" style="fill:#FF725E"></path><path d="M364.73,304.28s10-5,13.54-2.16c1.91,1.52-.21,9.85-2.61,10.57-3.47,1-8.7-2.61-11.23-5.59A3.44,3.44,0,0,1,364.73,304.28Z" style="opacity:0.2"></path><path d="M380.46,276.69a3.89,3.89,0,0,1,0-3c2.7-6.06.67-14.61,1-20,.25-3.84,2.12-6,6-4.52,7.27,2.83,7.33,25.87-2.05,33.83A13.09,13.09,0,0,1,380.46,276.69Z" style="fill:#e6e6e6"></path><path d="M381.11,278.17a13.82,13.82,0,0,0,2.2,3.18c4.23-4.51,7.2-16.92,5-22.8-1.26-3.44-3.89-4.22-4.3-1.27-.37,2.68.4,3.32.13,8.45A39.84,39.84,0,0,1,381.11,278.17Z" style="fill:#ffa8a7"></path><path d="M359.48,314.29c-7.82-2.11-14.9,2.87-15.46,10.2s9.79,13.44,18.91,10S368.75,316.79,359.48,314.29Z" style="fill:#ffa8a7"></path><path d="M372.85,344.68c-.56,3.42-3.39,12.82-7.39,16.23a5.85,5.85,0,0,1-2.72,1.27c-3.53.49-6.2-.74-8.64-3.45a14.58,14.58,0,0,1-2.28-4c-.74-1.79-3.11-12,.54-14.62s7.45-1.32,8.69-.13a30.7,30.7,0,0,1,4.07-3.35c2.68-1.64,5.3-.23,6.8,1.9C372.5,339.32,373.38,341.41,372.85,344.68Z" style="fill:#f0f0f0"></path><path d="M353.93,341.34a3.54,3.54,0,0,0-3.48,3.17,28.08,28.08,0,0,0,1.37,10.22,14.58,14.58,0,0,0,2.28,4,11.11,11.11,0,0,0,3.81,2.88c1.45.51,4.53.38,5.57-2.23,1.14-2.84.06-10.56-3.16-14.85A7.85,7.85,0,0,0,353.93,341.34Z" style="fill:#e0e0e0"></path><path d="M360.77,356c0,2.69-1.64,3.93-3.66,2.76s-3.65-4.29-3.65-7,1.64-3.93,3.65-2.76S360.77,353.29,360.77,356Z" style="fill:#f28f8f"></path><path d="M356.77,346c0,1-.62,1.48-1.39,1a3.31,3.31,0,0,1-1.38-2.64c0-1,.62-1.49,1.38-1A3.29,3.29,0,0,1,356.77,346Z" style="fill:#f28f8f"></path><path d="M361.11,348.93c0,1-.62,1.48-1.38,1a3.29,3.29,0,0,1-1.39-2.64c0-1,.62-1.49,1.39-1.05A3.33,3.33,0,0,1,361.11,348.93Z" style="fill:#f28f8f"></path><path d="M353.55,347.85c0,1-.62,1.48-1.38,1a3.28,3.28,0,0,1-1.38-2.64c0-1,.61-1.49,1.38-1A3.31,3.31,0,0,1,353.55,347.85Z" style="fill:#f28f8f"></path><path d="M361.8,339.29l-.75.69a12,12,0,0,1,2.86,4.38A7,7,0,0,0,361.8,339.29Z" style="opacity:0.1"></path><path d="M364.4,305.05a5.1,5.1,0,0,0-.13.68c.42.51,5.79,3.18,6,2.25s-4.88-2.58-4.88-2.58,6.13-.46,5.89-1.57C371.12,303.1,365.13,304.55,364.4,305.05Z" style="opacity:0.1"></path><path d="M357.6,283.9a1.82,1.82,0,1,1-1.82-1.82A1.82,1.82,0,0,1,357.6,283.9Z" style="fill:#37474f"></path><path d="M373.28,286.91a1.82,1.82,0,1,1-1.82-1.82A1.82,1.82,0,0,1,373.28,286.91Z" style="fill:#37474f"></path></g><g id="freepik--Doll--inject-1"><rect x="317.39" y="325.8" width="3.91" height="14.32" transform="matrix(0.99, 0.14, -0.14, 0.99, 51.53, -42.7)" style="fill:#ffa8a7"></rect><rect x="315.98" y="340.02" width="3.91" height="5.11" transform="matrix(0.99, 0.14, -0.14, 0.99, 52.9, -42.39)" style="fill:#37474f"></rect><path d="M316.88,341.62h0a3.13,3.13,0,0,1,2.65,3.57l0,.19-6.23-.91,0-.19A3.15,3.15,0,0,1,316.88,341.62Z" style="fill:#455a64"></path><rect x="316.41" y="339.26" width="3.91" height="0.79" transform="translate(52.5 -42.5) rotate(8.32)" style="fill:#fafafa"></rect><rect x="324.28" y="325.96" width="3.91" height="14.32" transform="translate(669.32 648.85) rotate(177.02)" style="fill:#ffa8a7"></rect><rect x="324.78" y="340.27" width="3.91" height="5.11" transform="translate(670.83 668.22) rotate(177.02)" style="fill:#37474f"></rect><path d="M327.88,342h0a3.15,3.15,0,0,0-3,3.3l0,.2,6.28-.33V345A3.14,3.14,0,0,0,327.88,342Z" style="fill:#455a64"></path><rect x="324.63" y="339.48" width="3.91" height="0.79" transform="translate(670.37 662.34) rotate(177.02)" style="fill:#fafafa"></rect><path d="M313.93,327.6l4.64-13.29,9.73.24,3.62,13.74A18.92,18.92,0,0,1,313.93,327.6Z" style="fill:#455a64"></path><path d="M315.18,293.4a3.1,3.1,0,1,1-3-3.17A3.1,3.1,0,0,1,315.18,293.4Z" style="fill:#f28f8f"></path><path d="M332.21,293.82a3.1,3.1,0,1,0,3.18-3A3.11,3.11,0,0,0,332.21,293.82Z" style="fill:#f28f8f"></path><path d="M302.26,307.16a2.08,2.08,0,0,0,.94-.05c-.76-.28-.95-.85-.7-1s.64-.1,1.09.05a1.65,1.65,0,0,0,.75.11,2,2,0,0,1-.07-1,.39.39,0,0,1,.72,0,2.15,2.15,0,0,0,1,1,1.18,1.18,0,0,1,.62.58,25.33,25.33,0,0,0,11.81-1.11l.84,2.16a22.84,22.84,0,0,1-6.21,1.35,33.56,33.56,0,0,1-6.74-.1h0a6.86,6.86,0,0,0-1.65.19,6.05,6.05,0,0,1-1.95.12c-.59-.13-.51-.73-.18-.81a1.49,1.49,0,0,0,.61-.28,1.81,1.81,0,0,1-1.07-.27C301.67,307.73,301.79,307.11,302.26,307.16Z" style="fill:#ffa8a7"></path><path d="M344.44,308.2a2.28,2.28,0,0,1-.94-.1c.78-.24,1-.81.76-1s-.63-.13-1.1,0a1.66,1.66,0,0,1-.75.08s.25-.71.12-1a.39.39,0,0,0-.72-.07,2.09,2.09,0,0,1-1.08.92,1.24,1.24,0,0,0-.66.55,25.31,25.31,0,0,1-11.73-1.69l-.95,2.12a22.87,22.87,0,0,0,6.14,1.65,32.44,32.44,0,0,0,6.73.23h0a6.45,6.45,0,0,1,1.64.27,5.85,5.85,0,0,0,2,.22c.59-.1.54-.71.22-.8a1.48,1.48,0,0,1-.6-.31,1.87,1.87,0,0,0,1.08-.22C345,308.8,344.91,308.17,344.44,308.2Z" style="fill:#ffa8a7"></path><path d="M325.29,304.72l-3.16-.08-4.74,1.18,1.15,8.62a13.21,13.21,0,0,0,9.76.11l1.22-8.54Z" style="fill:#FF725E"></path><path d="M325.29,304.72l-3.16-.08-4.74,1.18,1.15,8.62a13.21,13.21,0,0,0,9.76.11l1.22-8.54Z" style="fill:#fff;opacity:0.6000000000000001"></path><path d="M321.71,302.81v2.72c.23,1.27,3.12,1.25,3.44.06l.06-2.66Z" style="fill:#f28f8f"></path><ellipse cx="323.77" cy="290.51" rx="13.03" ry="12.39" transform="translate(25.41 607.06) rotate(-88.6)" style="fill:#ffa8a7"></ellipse><path d="M318.65,291.25a1.61,1.61,0,1,1-1.57-1.65A1.61,1.61,0,0,1,318.65,291.25Z" style="fill:#37474f"></path><path d="M317,294a2.07,2.07,0,1,1-2-1.76A1.89,1.89,0,0,1,317,294Z" style="fill:#f28f8f"></path><path d="M328.85,291.5a1.61,1.61,0,1,0,1.65-1.57A1.61,1.61,0,0,0,328.85,291.5Z" style="fill:#37474f"></path><path d="M330.39,294.31a2.08,2.08,0,1,0,2.09-1.66A1.91,1.91,0,0,0,330.39,294.31Z" style="fill:#f28f8f"></path><path d="M323,299.19a4.48,4.48,0,0,1-3.73-2.79.51.51,0,0,1,.39-.6.5.5,0,0,1,.6.39,3.93,3.93,0,0,0,6.8.16.51.51,0,0,1,1,.27,4.61,4.61,0,0,1-4.45,2.61A5.65,5.65,0,0,1,323,299.19Z" style="fill:#37474f"></path><path d="M324,281.48c1.08,7.95,12.17,9.43,12.17,9.43,1.45-8.21-3.38-15.18-12.33-15.4s-14.63,7.86-12.45,14.7C311.38,290.21,322.38,289.47,324,281.48Z" style="fill:#37474f"></path><path d="M308.38,283.59a6.1,6.1,0,0,1,7.79-9.39c2.59,2.16.91,4.3-1.25,6.9S311,285.74,308.38,283.59Z" style="fill:#37474f"></path><path d="M339.49,284.36a6.1,6.1,0,1,0-7.33-9.76c-2.69,2-1.11,4.25.91,6.94S336.79,286.38,339.49,284.36Z" style="fill:#37474f"></path></g><polygon points="346.18 407.28 412.04 369.26 412.04 300.35 346.18 338.37 346.18 407.28" style="fill:#FF725E"></polygon><polygon points="346.18 407.28 412.04 369.26 412.04 300.35 346.18 338.37 346.18 407.28" style="opacity:0.1"></polygon><polygon points="405.29 364.6 357.75 385.55 358.85 370.69 406.38 349.75 405.29 364.6" style="fill:#fafafa"></polygon><path d="M366.05,374.11v.09a5.52,5.52,0,0,1-3.35,5,2.21,2.21,0,0,1-.32.12.61.61,0,0,1-.25.18l0,0c-.12,0-.29.07-.27-.26.05-.67.14-1.35.19-2,.1-1.42.14-2.86.22-4.22v-.15a.84.84,0,0,1,.23-.63.31.31,0,0,1,.1-.05c.15-.07.25,0,.3.05l.22-.15a5.84,5.84,0,0,1,.65-.35,1.54,1.54,0,0,1,1.79.07A3.07,3.07,0,0,1,366.05,374.11Zm-.65.37a2.63,2.63,0,0,0-.32-1.78c-.32-.37-.86-.26-1.35-.05a4.18,4.18,0,0,0-.57.33c-.09,0-.19.13-.29.18v.07l-.07,1-.13,2.17c0,.71-.07,1.32-.11,1.95.1,0,.19-.06.3-.11a4,4,0,0,0,2-1.75A5.26,5.26,0,0,0,365.4,374.48Z" style="fill:#455a64"></path><path d="M371.51,371.36v.06c-.17,2.12-1.53,4.72-3.08,5.4-1.35.6-2-.76-1.88-2.46a7,7,0,0,1,2.22-4.71,2.67,2.67,0,0,1,.61-.38c.14-.06,1-.37,1.26-.12a.2.2,0,0,1,.14.06C371.35,369.54,371.58,370.34,371.51,371.36Zm-.64.31a1.64,1.64,0,0,0-.42-1.48,1,1,0,0,0-.18-.1h0a1.4,1.4,0,0,0-.93.11c-1.19.52-2,2.36-2.15,3.92-.1,1.36.46,2.23,1.35,1.84a3.93,3.93,0,0,0,1.55-1.66A6.43,6.43,0,0,0,370.87,371.67Z" style="fill:#455a64"></path><path d="M376.5,366.87c0,.19,0,.37-.05.58l-.17,1.78c-.09.89-.15,1.77-.24,2.66l-.05.66a1.29,1.29,0,0,1-.07.38.62.62,0,0,1-.31.42c-.2.09-.3-.08-.39-.23l-.55-.84c-.56-.87-1.15-1.7-1.74-2.52-.1,1.14-.26,3.09-.35,4.23l0,.44a.84.84,0,0,1-.4.6c-.22.09-.27-.17-.25-.39l.11-1c.06-.57.11-1.15.15-1.72s.08-1.15.12-1.72l.08-1.16a1.28,1.28,0,0,1,.07-.34.93.93,0,0,1,.05-.1.74.74,0,0,1,.31-.34c.12-.06.22,0,.27.13.43.67,1.48,2.23,2.39,3.42.12-1.21.25-2.41.34-3.61,0-.33,0-.66,0-1a1.43,1.43,0,0,1,.08-.39.51.51,0,0,1,.27-.3C376.42,366.41,376.52,366.59,376.5,366.87Z" style="fill:#455a64"></path><path d="M380.75,370.29a2.43,2.43,0,0,1,.08.55.66.66,0,0,1-.35.52l0,0c-.22.1-.27-.15-.3-.38l-.14-.82-.11-.6c-.37.17-.74.34-1.1.53l-.7.39-.14.08c-.16.49-.33,1-.48,1.51-.11.31-.18.72-.44.83s-.34-.07-.32-.28a1,1,0,0,1,.09-.35l.5-1.51c-.05,0-.06-.15-.05-.3a.67.67,0,0,1,.34-.59l.54-1.58c.29-.84.62-1.72.86-2.54l.08-.23c.09-.28.16-.42.33-.52l.1,0a.15.15,0,0,1,.18,0c.05,0,.09.08.09.23.09.55.17,1.1.28,1.64.18,1,.4,2,.61,3Zm-1-1.5-.05-.25-.29-1.45-.11-.5-.07.19-.69,2c-.09.26-.18.51-.26.76C378.77,369.32,379.26,369.05,379.75,368.79Z" style="fill:#455a64"></path><path d="M385.37,362.72l0,.07a.68.68,0,0,1-.39.56c-.47.21-.94.42-1.41.65v0c-.09,1.17-.22,2.34-.31,3.5,0,.4-.05.78-.07,1.15s0,.63,0,.95a.71.71,0,0,1-.35.66c-.19.08-.33,0-.31-.36l0-.52c.08-1.07.17-2.15.25-3.21.05-.61.07-1.19.12-1.81v-.07l-1.08.59c-.08,0-.25.15-.33.18s-.36,0-.34-.34a.85.85,0,0,1,.42-.64l1.2-.53c.51-.23,1-.52,1.55-.77l.43-.22.27-.15C385.24,362.35,385.39,362.42,385.37,362.72Z" style="fill:#455a64"></path><path d="M387.18,367.43c.2-.09.33.06.31.33a.77.77,0,0,1-.41.58l-.05,0a3,3,0,0,1-.48.23.57.57,0,0,1-.16.11l-.13,0a4.86,4.86,0,0,1-.55.29c-.23.11-.38,0-.36-.37a.55.55,0,0,1,.38-.5l.38-.21,0-.33c.09-1,.18-1.91.25-2.88l.15-1.91-.32.15-.08,0c-.21.09-.42.12-.39-.3a.67.67,0,0,1,.37-.57l.27-.1c.3-.13.62-.29.92-.45.09,0,.19-.12.28-.16s.33,0,.3.28a.8.8,0,0,1-.45.67l-.26.12c-.15,1.56-.26,3.09-.4,4.65l0,.47.31-.14Z" style="fill:#455a64"></path><path d="M393.18,361.81v.06c-.18,2.12-1.53,4.72-3.08,5.4-1.36.6-2-.76-1.89-2.46a7,7,0,0,1,2.22-4.71,2.73,2.73,0,0,1,.62-.38c.13-.06.95-.37,1.25-.12a.2.2,0,0,1,.15.06A2.17,2.17,0,0,1,393.18,361.81Zm-.64.31a1.64,1.64,0,0,0-.42-1.48,1,1,0,0,0-.18-.1h0a1.43,1.43,0,0,0-.94.11c-1.18.52-2,2.35-2.15,3.92-.1,1.36.46,2.24,1.35,1.84a3.93,3.93,0,0,0,1.55-1.66A6.28,6.28,0,0,0,392.54,362.12Z" style="fill:#455a64"></path><path d="M398.17,357.32c0,.19,0,.37-.05.58l-.17,1.78c-.09.89-.15,1.77-.23,2.65l-.05.67a1.27,1.27,0,0,1-.08.38.61.61,0,0,1-.3.42c-.21.09-.3-.08-.4-.23l-.54-.84c-.57-.87-1.16-1.7-1.75-2.52-.09,1.14-.26,3.09-.35,4.23l0,.44a.84.84,0,0,1-.4.6c-.21.09-.26-.17-.24-.4l.1-1c.06-.58.11-1.15.16-1.72l.12-1.72.08-1.16a1,1,0,0,1,.07-.34,1,1,0,0,1,0-.1.74.74,0,0,1,.31-.34.19.19,0,0,1,.28.13c.42.67,1.47,2.23,2.38,3.42.13-1.21.25-2.41.34-3.61,0-.33,0-.66.05-1a1.43,1.43,0,0,1,.08-.39.54.54,0,0,1,.27-.3C398.09,356.86,398.19,357,398.17,357.32Z" style="fill:#455a64"></path><path d="M402.33,355.45a.8.8,0,0,1-.43.61,1.22,1.22,0,0,1-.22,0,2.52,2.52,0,0,0-.75.21c-.6.27-1.49.85-1.55,1.68-.05.62.63.36,1.21.11l.29-.13a1.9,1.9,0,0,1,1.44-.23c.52.24.57,1,.54,1.48a4.58,4.58,0,0,1-2.62,3.61c-.53.23-1.3.41-1.65-.14a.8.8,0,0,1-.14-.47.58.58,0,0,1,.32-.46.26.26,0,0,1,.38.17l0,0c.25.29.76.15,1.13,0a3.42,3.42,0,0,0,1.33-1,2.62,2.62,0,0,0,.6-1.44c0-.36-.07-.76-.34-.87a1,1,0,0,0-.6.05c-.48.15-.93.39-1.37.53s-1.26.23-1.17-.94a3.34,3.34,0,0,1,1.45-2.35,4.43,4.43,0,0,1,.83-.48C401.46,355.2,402.37,354.83,402.33,355.45Z" style="fill:#455a64"></path><polygon points="408.57 353.3 407.16 355.94 401.25 351.32 402.65 348.68 408.57 353.3" style="fill:#FF725E"></polygon><polygon points="408.57 353.3 407.16 355.94 401.25 351.32 402.65 348.68 408.57 353.3" style="fill:#fff;opacity:0.8"></polygon><polygon points="363.13 383.65 361.73 386.3 355.82 381.68 357.22 379.03 363.13 383.65" style="fill:#FF725E"></polygon><polygon points="363.13 383.65 361.73 386.3 355.82 381.68 357.22 379.03 363.13 383.65" style="fill:#fff;opacity:0.8"></polygon><polygon points="346.18 338.37 358.1 362.53 412.04 331.46 412.04 300.35 346.18 338.37" style="opacity:0.1"></polygon><polygon points="346.18 407.28 280.32 369.26 280.32 300.35 346.18 338.37 346.18 407.28" style="fill:#FF725E"></polygon><polygon points="346.18 338.37 334.26 362.53 280.32 331.46 280.32 300.35 346.18 338.37" style="opacity:0.1"></polygon><polygon points="280.32 300.35 265.35 319.36 331.26 357.35 346.18 338.37 280.32 300.35" style="fill:#FF725E"></polygon><polygon points="280.32 300.35 265.35 319.36 331.26 357.35 346.18 338.37 280.32 300.35" style="fill:#fff;opacity:0.2"></polygon><polygon points="412.04 300.35 427.01 319.36 361.1 357.35 346.18 338.37 412.04 300.35" style="fill:#FF725E"></polygon><polygon points="412.04 300.35 427.01 319.36 361.1 357.35 346.18 338.37 412.04 300.35" style="fill:#fff;opacity:0.30000000000000004"></polygon></g><g id="freepik--clothes-box--inject-1"><polygon points="299.62 365.17 224.17 321.61 148.71 365.17 224.17 408.74 299.62 365.17" style="fill:#FF725E"></polygon><polygon points="299.62 365.17 224.17 321.61 148.71 365.17 224.17 408.74 299.62 365.17" style="fill:#fff;opacity:0.4"></polygon><polygon points="299.62 365.17 224.17 321.61 148.71 365.17 224.17 408.74 299.62 365.17" style="opacity:0.1"></polygon><polygon points="224.17 371.93 224.17 321.61 148.71 365.17 148.71 415.5 224.17 371.93" style="opacity:0.1"></polygon><polygon points="224.17 371.93 148.71 415.5 224.17 459.06 299.62 415.5 224.17 371.93" style="opacity:0.2"></polygon><path d="M175.31,374.84v6.22a2.72,2.72,0,0,0,1.37,2.37l44.58,25.74a2.61,2.61,0,0,0,2.63.28l47.31-27.31a2.3,2.3,0,0,0,1-2.1,7.73,7.73,0,0,0-3.6-6l-45.95-26.52Z" style="fill:#FF725E"></path><path d="M221.26,401.37l-45.95-26.53v6.22a2.72,2.72,0,0,0,1.37,2.37l44.58,25.74c2,1.15,3.6.34,3.6-1.82A7.73,7.73,0,0,0,221.26,401.37Z" style="opacity:0.2"></path><path d="M219.16,402.76a2.57,2.57,0,0,1,1.2,2c0,.72-.54,1-1.2.61L175.31,380v-2.6Z" style="opacity:0.2"></path><path d="M272.16,366.38v6.23a2.74,2.74,0,0,1-1.37,2.37l-44.58,25.73a2.64,2.64,0,0,1-2.63.29l-47.3-27.31a2.3,2.3,0,0,1-1-2.1,7.7,7.7,0,0,1,3.6-6l46-26.53Z" style="fill:#FF725E"></path><g style="opacity:0.5"><path d="M272.16,366.38v6.23a2.74,2.74,0,0,1-1.37,2.37l-44.58,25.73a2.64,2.64,0,0,1-2.63.29l-47.3-27.31a2.3,2.3,0,0,1-1-2.1,7.7,7.7,0,0,1,3.6-6l46-26.53Z" style="fill:#fff"></path></g><path d="M226.21,392.91l46-26.53v6.23a2.74,2.74,0,0,1-1.37,2.37l-44.58,25.73c-2,1.15-3.6.34-3.6-1.82A7.73,7.73,0,0,1,226.21,392.91Z" style="opacity:0.2"></path><path d="M228.31,394.3a2.57,2.57,0,0,0-1.2,2c0,.72.54,1,1.2.61l43.85-25.31V369Z" style="opacity:0.2"></path><path d="M175.31,357.39v6.23a2.71,2.71,0,0,0,1.37,2.36l44.58,25.74a2.64,2.64,0,0,0,2.63.29l47.31-27.32a2.3,2.3,0,0,0,1-2.1,7.73,7.73,0,0,0-3.6-6l-45.95-26.52Z" style="fill:#455a64"></path><path d="M221.26,383.92l-45.95-26.53v6.23a2.71,2.71,0,0,0,1.37,2.36l44.58,25.74c2,1.15,3.6.34,3.6-1.82A7.73,7.73,0,0,0,221.26,383.92Z" style="fill:#37474f"></path><path d="M219.16,385.31a2.57,2.57,0,0,1,1.2,2c0,.72-.54,1-1.2.61l-43.85-25.32V360Z" style="fill:#263238"></path><polygon points="224.17 459.06 299.62 415.5 299.62 365.17 224.17 408.74 224.17 459.06" style="fill:#FF725E"></polygon><polygon points="224.17 459.06 299.62 415.5 299.62 365.17 224.17 408.74 224.17 459.06" style="fill:#fff;opacity:0.6000000000000001"></polygon><polygon points="287.38 411.71 238.08 448.43 236.7 434.48 285.99 397.77 287.38 411.71" style="fill:#fafafa"></polygon><path d="M245.32,434.93V435a6.37,6.37,0,0,1-2.85,5.83,3.42,3.42,0,0,1-.34.23,1,1,0,0,1-.24.26l0,0c-.13.09-.32.18-.35-.14-.06-.62-.09-1.28-.15-1.91-.14-1.34-.34-2.67-.5-3.93v-.15a.82.82,0,0,1,.15-.65.43.43,0,0,1,.1-.09c.15-.12.27-.13.35-.07l.21-.21c.21-.2.44-.39.67-.57a1.66,1.66,0,0,1,3,1.31Zm-.65.57A1.91,1.91,0,0,0,244,434c-.42-.21-1,.09-1.52.47a6.45,6.45,0,0,0-.58.5,3.5,3.5,0,0,1-.28.27v.07l.09.93.24,2c.08.65.15,1.22.22,1.81.1-.08.2-.12.31-.2a5.44,5.44,0,0,0,1.91-2.34A4.61,4.61,0,0,0,244.67,435.5Z" style="fill:#455a64"></path><path d="M250.92,430.39v.06a7.68,7.68,0,0,1-2.48,6.06c-1.41,1.05-2.38.06-2.54-1.54a7.14,7.14,0,0,1,1.65-5.12,3.68,3.68,0,0,1,.62-.57c.14-.11,1-.69,1.38-.58a.2.2,0,0,1,.17,0C250.43,428.79,250.83,429.43,250.92,430.39Zm-.66.52c-.06-.68-.29-1.07-.72-1.19a1.66,1.66,0,0,0-.22,0h0a2.26,2.26,0,0,0-1,.45,5.23,5.23,0,0,0-1.7,4.37c.12,1.28.9,1.87,1.83,1.18a5.11,5.11,0,0,0,1.43-2.09A5.61,5.61,0,0,0,250.26,430.91Z" style="fill:#455a64"></path><path d="M255.7,424.45c0,.18,0,.35,0,.54l.12,1.69c.07.85.15,1.68.21,2.51l.06.63a1.13,1.13,0,0,1,0,.37.79.79,0,0,1-.27.5c-.21.16-.35,0-.48-.07l-.76-.56c-.78-.59-1.58-1.12-2.38-1.65.09,1.07.24,2.91.35,4l0,.41a.9.9,0,0,1-.34.69c-.22.17-.32-.05-.34-.27l-.06-.94c0-.55-.08-1.09-.13-1.63s-.11-1.08-.17-1.62l-.11-1.08a.79.79,0,0,1,0-.34l0-.11a.94.94,0,0,1,.28-.42.22.22,0,0,1,.33,0c.6.45,2,1.49,3.26,2.24-.07-1.15-.14-2.29-.25-3.42,0-.31-.09-.61-.12-.93a1.31,1.31,0,0,1,0-.39.62.62,0,0,1,.25-.37C255.53,424.06,255.67,424.18,255.7,424.45Z" style="fill:#455a64"></path><path d="M261,426a1.55,1.55,0,0,1,.19.48.77.77,0,0,1-.29.6l0,0c-.24.18-.33,0-.41-.23l-.3-.7-.23-.5c-.38.29-.76.58-1.13.89l-.71.61-.14.13c-.1.51-.2,1-.28,1.55-.06.32-.07.72-.34.92s-.38.06-.4-.14a1,1,0,0,1,0-.35l.29-1.56a.33.33,0,0,1-.1-.25.76.76,0,0,1,.28-.67c.11-.55.21-1.1.32-1.65.18-.86.39-1.79.51-2.63l.05-.23a.87.87,0,0,1,.27-.6.48.48,0,0,1,.11-.09.22.22,0,0,1,.2-.06c.06,0,.11,0,.15.19.19.46.38.93.59,1.38.39.86.81,1.71,1.22,2.55Zm-1.37-1-.1-.21-.58-1.22-.21-.41,0,.2-.42,2.09c-.06.27-.11.53-.16.8C258.66,425.84,259.16,425.41,259.66,425Z" style="fill:#455a64"></path><path d="M264.85,417.38v.07a.82.82,0,0,1-.34.66c-.49.36-1,.73-1.46,1.11v0c.11,1.1.16,2.21.27,3.31,0,.37.08.72.12,1.07s.1.58.13.88a.72.72,0,0,1-.28.73c-.19.15-.37.11-.4-.22l0-.48c-.1-1-.18-2-.28-3-.06-.58-.13-1.11-.19-1.7v-.06l-1.1.93c-.08.07-.25.23-.34.29s-.4.09-.43-.19a1,1,0,0,1,.35-.74l1.25-.93c.53-.39,1.06-.85,1.59-1.27l.44-.36.28-.24C264.65,417.09,264.82,417.1,264.85,417.38Z" style="fill:#455a64"></path><path d="M267.69,421c.21-.15.38-.07.41.19a1,1,0,0,1-.36.69l0,0c-.17.15-.33.26-.5.39a1.21,1.21,0,0,1-.16.16l-.13.07c-.19.16-.38.34-.57.47s-.43.1-.46-.21a.65.65,0,0,1,.32-.59l.39-.33c0-.1,0-.21,0-.32-.07-.91-.14-1.81-.23-2.71l-.18-1.8-.32.25-.09.07c-.22.16-.45.27-.49-.13a.79.79,0,0,1,.32-.66,2.31,2.31,0,0,0,.28-.19c.31-.23.64-.49.95-.75l.28-.26c.2-.14.36-.13.39.15a.93.93,0,0,1-.39.78l-.26.21c.1,1.48.25,2.91.36,4.39l.05.44.32-.25Z" style="fill:#455a64"></path><path d="M273.4,413.65v.06a7.72,7.72,0,0,1-2.49,6.07c-1.41,1.05-2.37.05-2.53-1.55a7.13,7.13,0,0,1,1.64-5.12,4.65,4.65,0,0,1,.62-.57c.15-.11,1-.69,1.38-.58a.23.23,0,0,1,.18,0C272.91,412.05,273.3,412.69,273.4,413.65Zm-.66.52c-.07-.67-.3-1.07-.72-1.19a1.64,1.64,0,0,0-.22,0h-.06a2.11,2.11,0,0,0-1,.44,5.24,5.24,0,0,0-1.71,4.37c.13,1.28.91,1.87,1.83,1.18a5.05,5.05,0,0,0,1.44-2.09A5.86,5.86,0,0,0,272.74,414.17Z" style="fill:#455a64"></path><path d="M278.17,407.71c0,.18,0,.35.05.55l.12,1.69c.06.84.14,1.67.21,2.51l.06.62a1.09,1.09,0,0,1,0,.37.77.77,0,0,1-.27.5c-.21.16-.34,0-.48-.06l-.75-.57c-.78-.59-1.58-1.12-2.39-1.65.1,1.07.25,2.91.36,4l0,.41a1,1,0,0,1-.34.69c-.22.17-.33-.05-.35-.26l-.06-.95c0-.55-.08-1.09-.12-1.62s-.12-1.09-.17-1.62l-.11-1.08a.83.83,0,0,1,0-.35.42.42,0,0,1,0-.1,1,1,0,0,1,.28-.43.22.22,0,0,1,.33,0c.59.45,2,1.49,3.26,2.24-.07-1.15-.14-2.29-.25-3.42,0-.31-.09-.61-.12-.93a1,1,0,0,1,0-.39.66.66,0,0,1,.25-.37C278,407.32,278.15,407.44,278.17,407.71Z" style="fill:#455a64"></path><path d="M282.48,404.47a.91.91,0,0,1-.38.71,1.73,1.73,0,0,1-.24.1,3.33,3.33,0,0,0-.79.46c-.63.47-1.52,1.33-1.44,2.11.06.59.76.1,1.37-.35l.3-.23a3,3,0,0,1,1.57-.74c.62,0,.81.74.85,1.15.17,1.69-1.16,3.43-2.28,4.26-.55.41-1.37.86-1.87.49a.54.54,0,0,1-.23-.38.64.64,0,0,1,.28-.54.3.3,0,0,1,.45,0h0c.34.18.88-.14,1.26-.43a5,5,0,0,0,1.31-1.43,2.62,2.62,0,0,0,.41-1.53c0-.34-.21-.67-.54-.66a1.35,1.35,0,0,0-.65.26c-.51.31-1,.7-1.43,1s-1.37.67-1.47-.42a3.68,3.68,0,0,1,1.19-2.68,6.44,6.44,0,0,1,.85-.75C281.46,404.56,282.42,403.89,282.48,404.47Z" style="fill:#455a64"></path><polygon points="289.05 400.19 287.95 403.12 280.55 401.1 281.65 398.17 289.05 400.19" style="fill:#FF725E"></polygon><polygon points="289.05 400.19 287.95 403.12 280.55 401.1 281.65 398.17 289.05 400.19" style="fill:#fff;opacity:0.8"></polygon><polygon points="243.75 444.7 242.65 447.63 235.25 445.61 236.35 442.68 243.75 444.7" style="fill:#FF725E"></polygon><polygon points="243.75 444.7 242.65 447.63 235.25 445.61 236.35 442.68 243.75 444.7" style="fill:#fff;opacity:0.8"></polygon><polygon points="224.17 408.74 237.83 432.56 299.62 396.96 299.62 365.17 224.17 408.74" style="opacity:0.1"></polygon><polygon points="224.17 459.06 148.71 415.5 148.71 365.17 224.17 408.74 224.17 459.06" style="fill:#FF725E"></polygon><polygon points="224.17 459.06 148.71 415.5 148.71 365.17 224.17 408.74 224.17 459.06" style="fill:#fff;opacity:0.4"></polygon><polygon points="224.17 408.74 210.51 436.41 148.71 400.82 148.71 365.17 224.17 408.74" style="opacity:0.1"></polygon><polygon points="148.71 365.17 131.56 386.95 207.08 430.47 224.17 408.74 148.71 365.17" style="fill:#FF725E"></polygon><polygon points="148.71 365.17 131.56 386.95 207.08 430.47 224.17 408.74 148.71 365.17" style="fill:#fff;opacity:0.6000000000000001"></polygon><polygon points="299.62 365.17 315.54 386.67 240.02 430.18 224.17 408.74 299.62 365.17" style="fill:#FF725E"></polygon><polygon points="299.62 365.17 315.54 386.67 240.02 430.18 224.17 408.74 299.62 365.17" style="fill:#fff;opacity:0.4"></polygon></g></g></svg>
