<svg version="1.2" xmlns="http://www.w3.org/2000/svg" viewBox="0 0 100 100" width="100" height="100">
	<title>New Project</title>
	<style>
		.s0 { fill: #263238 } 
		.s1 { fill: #ff725e } 
		.s2 { fill: #455a64 } 
		.s3 { fill: #000000 } 
	</style>
	<path id="Layer copy" class="s0" d="m18.7 33.1l12.5 26.3"/>
	<path id="Layer copy 2" class="s0" d="m31.2 59.4c-0.1 0.1-3-5.7-6.5-13-3.5-7.2-6.2-13.2-6-13.3 0.2 0 3 5.8 6.5 13.1 3.5 7.3 6.1 13.2 6 13.2z"/>
	<path id="Layer copy 3" class="s0" d="m43.4 59.4c-0.1 0-1-5.9-1.8-13.2-0.8-7.3-1.5-13.2-1.3-13.3 0.1 0 1 5.9 1.8 13.2 0.8 7.3 1.4 13.3 1.3 13.3z"/>
	<path id="Layer copy 4" class="s0" d="m58.7 60.3c-0.2 0 0.2-6.2 0.7-13.8 0.6-7.6 1.2-13.8 1.3-13.7 0.1 0-0.2 6.1-0.8 13.7-0.5 7.6-1.1 13.8-1.2 13.8z"/>
	<path id="Layer copy 5" class="s1" d="m17.1 34.5c0 0 5.7-29.7 31.4-30.1 27.9-0.3 34.3 28.9 34.3 28.9 0 0-11.1-16.4-21.5 0.4 0 0-4-7.8-11.5-7.3-7.6 0.5-10 7.5-10 7.5 0 0-4.9-8.2-13-6.8-5.2 1-9.7 7.4-9.7 7.4z"/>
	<path id="Layer copy 14" class="s0" d="m18.7 33.1l12.5 26.3"/>
	<path id="Layer copy 15" class="s0" d="m31.2 59.4c-0.1 0.1-3-5.7-6.5-13-3.5-7.2-6.2-13.2-6-13.3 0.2 0 3 5.8 6.5 13.1 3.5 7.3 6.1 13.2 6 13.2z"/>
	<path id="Layer copy 16" class="s0" d="m43.4 59.4c-0.1 0-1-5.9-1.8-13.2-0.8-7.3-1.5-13.2-1.3-13.3 0.1 0 1 5.9 1.8 13.2 0.8 7.3 1.4 13.3 1.3 13.3z"/>
	<path id="Layer copy 17" class="s0" d="m58.7 60.3c-0.2 0 0.2-6.2 0.7-13.8 0.6-7.6 1.2-13.8 1.3-13.7 0.1 0-0.2 6.1-0.8 13.7-0.5 7.6-1.1 13.8-1.2 13.8z"/>
	<path id="Layer copy 18" class="s1" d="m17.1 34.5c0 0 5.7-29.7 31.4-30.1 27.9-0.3 34.3 28.9 34.3 28.9 0 0-11.1-16.4-21.5 0.4 0 0-4-7.8-11.5-7.3-7.6 0.5-10 7.5-10 7.5 0 0-4.9-8.2-13-6.8-5.2 1-9.7 7.4-9.7 7.4z"/>
	<path id="Layer copy 19" class="s0" d="m46.7 4.4c0.1 0-0.7 1.6-1.8 4q-0.6 1.3-1.1 2.5-0.5 1.3-0.9 2.5-0.5 1.3-0.8 2.6-0.4 1.3-0.7 2.6-0.4 1.3-0.6 2.6-0.3 1.3-0.5 2.7-0.2 1.3-0.3 2.6-0.2 1.4-0.3 2.7c-0.1 2.7-0.1 4.4-0.2 4.4q0-0.1 0-0.3-0.1-0.1-0.1-0.3 0-0.1 0-0.3 0-0.1 0-0.3c-0.1-0.7-0.1-1.8 0-3.2q0-1.4 0.2-2.7 0.1-1.4 0.3-2.7 0.1-1.4 0.4-2.7 0.3-1.3 0.6-2.6 0.3-1.4 0.7-2.6 0.4-1.3 0.8-2.6 0.5-1.3 1-2.5 0.6-1.3 1.2-2.5c0.6-1.2 1.1-2.2 1.5-2.9q0.1-0.1 0.1-0.2 0.1-0.2 0.2-0.3 0.1-0.1 0.2-0.2 0-0.1 0.1-0.3z"/>
	<path id="Layer copy 20" class="s0" d="m61.6 33.4c-0.1 0-0.1-1.7-0.6-4.6q-0.2-1.3-0.5-2.7-0.3-1.4-0.7-2.7-0.4-1.4-0.8-2.7-0.5-1.3-1-2.6-0.5-1.3-1.1-2.6-0.6-1.2-1.3-2.4-0.6-1.3-1.4-2.5-0.7-1.1-1.5-2.3c-1.6-2.3-2.8-3.7-2.8-3.7q0.2 0.1 0.3 0.2 0.1 0.1 0.2 0.2 0.1 0.1 0.2 0.2 0.1 0.1 0.2 0.3 0.3 0.3 0.6 0.6 0.3 0.3 0.5 0.7 0.3 0.3 0.6 0.6 0.2 0.4 0.5 0.7 1.7 2.3 3.1 4.7 1.3 2.5 2.4 5.1 1 2.6 1.8 5.4 0.7 2.7 1 5.5 0.1 0.4 0.1 0.8 0.1 0.5 0.1 0.9 0.1 0.4 0.1 0.8 0 0.5 0 0.9 0 0.1 0 0.3 0 0.2 0.1 0.3 0 0.2-0.1 0.3 0 0.2 0 0.3z"/>
	<path id="Layer copy 21" class="s2" d="m21.9 59.4h56.2v37.6h-56.2z"/>
	<path id="Layer copy 22" class="s3" d="m55.2 59.4h22.9v37.6h-22.9z"/>
	<path id="Layer copy 23" class="s0" d="m55.2 59.4c0.2 0 0.3 8.3 0.3 18.5 0 10.3-0.1 18.6-0.3 18.6-0.1 0-0.2-8.3-0.2-18.6 0-10.2 0.1-18.5 0.2-18.5z"/>
	<path id="Layer copy 24" class="s0" d="m53.8 60.1c0.1 0.1-6.9 8.4-15.7 18.6-8.7 10.1-15.9 18.3-16 18.2-0.1-0.1 6.9-8.4 15.7-18.6 8.7-10.1 15.8-18.3 16-18.2z"/>
	<path id="Layer copy 25" class="s0" d="m55.2 97q0 0-0.1-0.1 0 0-0.1-0.1 0 0-0.1-0.1 0 0 0-0.1l-1-1.1q-1.2-1.5-3.5-4c-3-3.3-7.2-7.9-11.8-13-4.7-5-8.9-9.6-11.9-13-1.5-1.6-2.6-3.1-3.4-4l-0.9-1.2q-0.1 0-0.1-0.1-0.1 0-0.1-0.1 0 0-0.1-0.1 0 0 0-0.1 0 0 0.1 0.1 0 0 0.1 0.1 0 0 0.1 0.1 0 0 0.1 0.1l1 1 3.5 4 12 12.9c4.6 5.1 8.8 9.7 11.7 13.2 1.5 1.7 2.6 3.1 3.4 4.1l0.9 1.1q0 0.1 0 0.1 0.1 0.1 0.1 0.1 0 0.1 0.1 0.1 0 0.1 0 0.1z"/>
	<path id="Layer copy 6" class="s0" d="m46.7 4.4c0.1 0-0.7 1.6-1.8 4q-0.6 1.3-1.1 2.5-0.5 1.3-0.9 2.5-0.5 1.3-0.8 2.6-0.4 1.3-0.7 2.6-0.4 1.3-0.6 2.6-0.3 1.3-0.5 2.7-0.2 1.3-0.3 2.6-0.2 1.4-0.3 2.7c-0.1 2.7-0.1 4.4-0.2 4.4q0-0.1 0-0.3-0.1-0.1-0.1-0.3 0-0.1 0-0.3 0-0.1 0-0.3c-0.1-0.7-0.1-1.8 0-3.2q0-1.4 0.2-2.7 0.1-1.4 0.3-2.7 0.1-1.4 0.4-2.7 0.3-1.3 0.6-2.6 0.3-1.4 0.7-2.6 0.4-1.3 0.8-2.6 0.5-1.3 1-2.5 0.6-1.3 1.2-2.5c0.6-1.2 1.1-2.2 1.5-2.9q0.1-0.1 0.1-0.2 0.1-0.2 0.2-0.3 0.1-0.1 0.2-0.2 0-0.1 0.1-0.3z"/>
	<path id="Layer copy 7" class="s0" d="m61.6 33.4c-0.1 0-0.1-1.7-0.6-4.6q-0.2-1.3-0.5-2.7-0.3-1.4-0.7-2.7-0.4-1.4-0.8-2.7-0.5-1.3-1-2.6-0.5-1.3-1.1-2.6-0.6-1.2-1.3-2.4-0.6-1.3-1.4-2.5-0.7-1.1-1.5-2.3c-1.6-2.3-2.8-3.7-2.8-3.7q0.2 0.1 0.3 0.2 0.1 0.1 0.2 0.2 0.1 0.1 0.2 0.2 0.1 0.1 0.2 0.3 0.3 0.3 0.6 0.6 0.3 0.3 0.5 0.7 0.3 0.3 0.6 0.6 0.2 0.4 0.5 0.7 1.7 2.3 3.1 4.7 1.3 2.5 2.4 5.1 1 2.6 1.8 5.4 0.7 2.7 1 5.5 0.1 0.4 0.1 0.8 0.1 0.5 0.1 0.9 0.1 0.4 0.1 0.8 0 0.5 0 0.9 0 0.1 0 0.3 0 0.2 0.1 0.3 0 0.2-0.1 0.3 0 0.2 0 0.3z"/>
	<path id="Layer copy 8" class="s2" d="m21.9 59.4h56.2v37.6h-56.2z"/>
	<path id="Layer copy 9" class="s3" d="m55.2 59.4h22.9v37.6h-22.9z"/>
	<path id="Layer copy 10" class="s0" d="m55.2 59.4c0.2 0 0.3 8.3 0.3 18.5 0 10.3-0.1 18.6-0.3 18.6-0.1 0-0.2-8.3-0.2-18.6 0-10.2 0.1-18.5 0.2-18.5z"/>
	<path id="Layer copy 11" class="s0" d="m53.8 60.1c0.1 0.1-6.9 8.4-15.7 18.6-8.7 10.1-15.9 18.3-16 18.2-0.1-0.1 6.9-8.4 15.7-18.6 8.7-10.1 15.8-18.3 16-18.2z"/>
	<path id="Layer copy 12" class="s0" d="m55.2 97q0 0-0.1-0.1 0 0-0.1-0.1 0 0-0.1-0.1 0 0 0-0.1l-1-1.1q-1.2-1.5-3.5-4c-3-3.3-7.2-7.9-11.8-13-4.7-5-8.9-9.6-11.9-13-1.5-1.6-2.6-3.1-3.4-4l-0.9-1.2q-0.1 0-0.1-0.1-0.1 0-0.1-0.1 0 0-0.1-0.1 0 0 0-0.1 0 0 0.1 0.1 0 0 0.1 0.1 0 0 0.1 0.1 0 0 0.1 0.1l1 1 3.5 4 12 12.9c4.6 5.1 8.8 9.7 11.7 13.2 1.5 1.7 2.6 3.1 3.4 4.1l0.9 1.1q0 0.1 0 0.1 0.1 0.1 0.1 0.1 0 0.1 0.1 0.1 0 0.1 0 0.1z"/>
	<path id="Layer" class="s0" d="m71.1 60.9c-0.1 0 2-6.7 4.6-14.8 2.7-8.1 5-14.7 5.2-14.6 0.1 0-2 6.6-4.7 14.8-2.6 8.1-4.9 14.6-5.1 14.6z"/>
	<path id="Layer" class="s0" d="m18.7 33.1l12.5 26.3"/>
	<path id="Layer" class="s0" d="m31.2 59.4c-0.1 0.1-3-5.7-6.5-13-3.5-7.2-6.2-13.2-6-13.3 0.2 0 3 5.8 6.5 13.1 3.5 7.3 6.1 13.2 6 13.2z"/>
	<path id="Layer" class="s0" d="m43.4 59.4c-0.1 0-1-5.9-1.8-13.2-0.8-7.3-1.5-13.2-1.3-13.3 0.1 0 1 5.9 1.8 13.2 0.8 7.3 1.4 13.3 1.3 13.3z"/>
	<path id="Layer" class="s0" d="m58.7 60.3c-0.2 0 0.2-6.2 0.7-13.8 0.6-7.6 1.2-13.8 1.3-13.7 0.1 0-0.2 6.1-0.8 13.7-0.5 7.6-1.1 13.8-1.2 13.8z"/>
	<path id="Layer" class="s1" d="m17.1 34.5c0 0 5.7-29.7 31.4-30.1 27.9-0.3 34.3 28.9 34.3 28.9 0 0-11.1-16.4-21.5 0.4 0 0-4-7.8-11.5-7.3-7.6 0.5-10 7.5-10 7.5 0 0-4.9-8.2-13-6.8-5.2 1-9.7 7.4-9.7 7.4z"/>
	<path id="Layer" class="s0" d="m46.7 4.4c0.1 0-0.7 1.6-1.8 4q-0.6 1.3-1.1 2.5-0.5 1.3-0.9 2.5-0.5 1.3-0.8 2.6-0.4 1.3-0.7 2.6-0.4 1.3-0.6 2.6-0.3 1.3-0.5 2.7-0.2 1.3-0.3 2.6-0.2 1.4-0.3 2.7c-0.1 2.7-0.1 4.4-0.2 4.4q0-0.1 0-0.3-0.1-0.1-0.1-0.3 0-0.1 0-0.3 0-0.1 0-0.3c-0.1-0.7-0.1-1.8 0-3.2q0-1.4 0.2-2.7 0.1-1.4 0.3-2.7 0.1-1.4 0.4-2.7 0.3-1.3 0.6-2.6 0.3-1.4 0.7-2.6 0.4-1.3 0.8-2.6 0.5-1.3 1-2.5 0.6-1.3 1.2-2.5c0.6-1.2 1.1-2.2 1.5-2.9q0.1-0.1 0.1-0.2 0.1-0.2 0.2-0.3 0.1-0.1 0.2-0.2 0-0.1 0.1-0.3z"/>
	<path id="Layer" class="s0" d="m61.6 33.4c-0.1 0-0.1-1.7-0.6-4.6q-0.2-1.3-0.5-2.7-0.3-1.4-0.7-2.7-0.4-1.4-0.8-2.7-0.5-1.3-1-2.6-0.5-1.3-1.1-2.6-0.6-1.2-1.3-2.4-0.6-1.3-1.4-2.5-0.7-1.1-1.5-2.3c-1.6-2.3-2.8-3.7-2.8-3.7q0.2 0.1 0.3 0.2 0.1 0.1 0.2 0.2 0.1 0.1 0.2 0.2 0.1 0.1 0.2 0.3 0.3 0.3 0.6 0.6 0.3 0.3 0.5 0.7 0.3 0.3 0.6 0.6 0.2 0.4 0.5 0.7 1.7 2.3 3.1 4.7 1.3 2.5 2.4 5.1 1 2.6 1.8 5.4 0.7 2.7 1 5.5 0.1 0.4 0.1 0.8 0.1 0.5 0.1 0.9 0.1 0.4 0.1 0.8 0 0.5 0 0.9 0 0.1 0 0.3 0 0.2 0.1 0.3 0 0.2-0.1 0.3 0 0.2 0 0.3z"/>
	<path id="Layer" class="s2" d="m21.9 59.4h56.2v37.6h-56.2z"/>
	<path id="Layer" class="s3" d="m55.2 59.4h22.9v37.6h-22.9z"/>
	<path id="Layer" class="s0" d="m55.2 59.4c0.2 0 0.3 8.3 0.3 18.5 0 10.3-0.1 18.6-0.3 18.6-0.1 0-0.2-8.3-0.2-18.6 0-10.2 0.1-18.5 0.2-18.5z"/>
	<path id="Layer" class="s0" d="m53.8 60.1c0.1 0.1-6.9 8.4-15.7 18.6-8.7 10.1-15.9 18.3-16 18.2-0.1-0.1 6.9-8.4 15.7-18.6 8.7-10.1 15.8-18.3 16-18.2z"/>
	<path id="Layer" class="s0" d="m55.2 97q0 0-0.1-0.1 0 0-0.1-0.1 0 0-0.1-0.1 0 0 0-0.1l-1-1.1q-1.2-1.5-3.5-4c-3-3.3-7.2-7.9-11.8-13-4.7-5-8.9-9.6-11.9-13-1.5-1.6-2.6-3.1-3.4-4l-0.9-1.2q-0.1 0-0.1-0.1-0.1 0-0.1-0.1 0 0-0.1-0.1 0 0 0-0.1 0 0 0.1 0.1 0 0 0.1 0.1 0 0 0.1 0.1 0 0 0.1 0.1l1 1 3.5 4 12 12.9c4.6 5.1 8.8 9.7 11.7 13.2 1.5 1.7 2.6 3.1 3.4 4.1l0.9 1.1q0 0.1 0 0.1 0.1 0.1 0.1 0.1 0 0.1 0.1 0.1 0 0.1 0 0.1z"/>
</svg>
