<svg xmlns="http://www.w3.org/2000/svg" viewBox="0 0 500 500"><g id="freepik--background-complete--inject-13" style="mix-blend-mode:multiply"><rect x="416.78" y="398.49" width="33.12" height="0.25" style="fill:#ebebeb"></rect><rect x="322.53" y="401.21" width="8.69" height="0.25" style="fill:#ebebeb"></rect><rect x="396.59" y="389.21" width="19.19" height="0.25" style="fill:#ebebeb"></rect><rect x="52.46" y="390.89" width="43.19" height="0.25" style="fill:#ebebeb"></rect><rect x="104.56" y="390.89" width="6.33" height="0.25" style="fill:#ebebeb"></rect><rect x="131.47" y="395.11" width="93.68" height="0.25" style="fill:#ebebeb"></rect><path d="M238.4,337.8H45.3a5.71,5.71,0,0,1-5.71-5.71V60.66A5.71,5.71,0,0,1,45.3,55H238.4a5.71,5.71,0,0,1,5.71,5.71V332.09A5.71,5.71,0,0,1,238.4,337.8ZM45.3,55.2a5.47,5.47,0,0,0-5.46,5.46V332.09a5.47,5.47,0,0,0,5.46,5.46H238.4a5.47,5.47,0,0,0,5.46-5.46V60.66a5.47,5.47,0,0,0-5.46-5.46Z" style="fill:#ebebeb"></path><path d="M454.7,337.8H261.6a5.71,5.71,0,0,1-5.71-5.71V60.66A5.71,5.71,0,0,1,261.6,55H454.7a5.71,5.71,0,0,1,5.71,5.71V332.09A5.71,5.71,0,0,1,454.7,337.8ZM261.6,55.2a5.47,5.47,0,0,0-5.46,5.46V332.09a5.47,5.47,0,0,0,5.46,5.46H454.7a5.47,5.47,0,0,0,5.46-5.46V60.66a5.47,5.47,0,0,0-5.46-5.46Z" style="fill:#ebebeb"></path><rect y="382.4" width="500" height="0.25" style="fill:#ebebeb"></rect><path d="M78.88,277h40.19v-43.4h0a40.19,40.19,0,0,0-40.19,40.19Z" style="fill:#e6e6e6"></path><path d="M125.58,338.18H59.31l-.93-47.57a6.7,6.7,0,0,1,.39-2.43l13.67-38.84a7.83,7.83,0,0,1,7.47-5.05h45.67Z" style="fill:#f0f0f0"></path><path d="M58.37,338.18h0a6.78,6.78,0,0,0,6.78-6.78v-2.57a6.77,6.77,0,0,0-6.78-6.78h0Z" style="fill:#e6e6e6"></path><path d="M53.4,271.37H51.3V264a11,11,0,0,1,11-10.95H80.1v2.1H62.25A8.86,8.86,0,0,0,53.4,264Z" style="fill:#e6e6e6"></path><path d="M52.58,286.51h0a5.77,5.77,0,0,0,5.77-5.77v-8.25a5.77,5.77,0,0,0-5.77-5.77h0a5.77,5.77,0,0,0-5.77,5.77v8.25A5.77,5.77,0,0,0,52.58,286.51Z" style="fill:#e6e6e6"></path><path d="M48.69,280.74v-8.25a3.89,3.89,0,0,1,3.89-3.89h0a3.89,3.89,0,0,1,3.89,3.89v8.25a3.89,3.89,0,0,1-3.89,3.89h0A3.89,3.89,0,0,1,48.69,280.74Z" style="fill:#fafafa"></path><path d="M73,288.31h34.52a3.88,3.88,0,0,0,3.88-3.87V256.05a3.88,3.88,0,0,0-3.88-3.88H81.74a3.87,3.87,0,0,0-3.7,2.74l-8.7,28.39A3.87,3.87,0,0,0,73,288.31Z" style="fill:#e0e0e0"></path><path d="M74.1,267.77,69.34,283.3a3.87,3.87,0,0,0,3.7,5h34.52a3.88,3.88,0,0,0,3.88-3.87V267.77Z" style="fill:#fafafa"></path><path d="M68.58,337.34a19.22,19.22,0,0,0,19.24,19.24A19.42,19.42,0,0,0,107,337.37a19.21,19.21,0,0,0-19.23-19.23A19.42,19.42,0,0,0,68.58,337.34Z" style="fill:#e0e0e0"></path><ellipse cx="261.4" cy="337.06" rx="18.41" ry="18.93" style="fill:#e0e0e0"></ellipse><rect x="119.07" y="189.36" width="201.15" height="122.46" transform="translate(439.3 501.19) rotate(180)" style="fill:#e6e6e6"></rect><path d="M314.8,306.83a.42.42,0,0,0,.42-.42V194.78a.42.42,0,0,0-.42-.42H219.75V306.83Z" style="fill:#e0e0e0"></path><path d="M314.8,224.18c.24,0,.42-.05.42-.11V194.44c0-.07-.18-.12-.42-.12H219.75v29.86Z" style="fill:#f5f5f5"></path><polygon points="119.07 189.36 214.75 189.36 214.75 311.83 119.07 311.83 119.07 311.83 119.07 189.36" style="fill:#ebebeb"></polygon><rect x="264.85" y="273.09" width="40.49" height="33.74" transform="translate(570.19 579.91) rotate(180)" style="fill:#ebebeb"></rect><rect x="219.75" y="266.49" width="51.09" height="40.34" transform="translate(490.6 573.32) rotate(180)" style="fill:#f0f0f0"></rect><rect x="219.75" y="228.09" width="43.59" height="38.39" transform="translate(483.1 494.58) rotate(180)" style="fill:#ebebeb"></rect><rect x="121.17" y="311.83" width="185.97" height="26.35" transform="translate(428.31 650) rotate(180)" style="fill:#e6e6e6"></rect><rect x="217.45" y="315.38" width="87.88" height="19.64" transform="translate(522.79 650.4) rotate(180)" style="fill:#e6e6e6"></rect><rect x="220.35" y="322.83" width="25.39" height="7.8" transform="translate(466.1 653.45) rotate(180)" style="fill:#fafafa"></rect><rect x="220.35" y="322.83" width="15.32" height="7.8" transform="translate(456.02 653.45) rotate(180)" style="fill:#f0f0f0"></rect><rect x="274.28" y="322.83" width="25.39" height="7.8" transform="translate(573.95 653.45) rotate(180)" style="fill:#fafafa"></rect><rect x="288.17" y="322.83" width="11.5" height="7.8" transform="translate(587.84 653.45) rotate(180)" style="fill:#f0f0f0"></rect><path d="M182.83,337.06c0,10.45,2.58,18.93,17.66,18.93,10.16,0,19.16-8.48,19.16-18.93a18.42,18.42,0,1,0-36.82,0Z" style="fill:#e0e0e0"></path><path d="M177.15,336.54A19.18,19.18,0,0,0,196.09,356c10.17,0,17.88-8.38,17.88-19.45s-8.25-20-18.41-20S177.15,325.47,177.15,336.54Z" style="fill:#e6e6e6"></path><path d="M66.23,337c0,10.81,8.24,19.58,18.4,19.58S103,347.81,103,337s-8.24-19.59-18.41-19.59S66.23,326.18,66.23,337Z" style="fill:#e6e6e6"></path><path d="M75.58,336.54c0,5.44,4,9.86,9,9.86s9.05-4.42,9.05-9.86-4.05-9.85-9.05-9.85S75.58,331.1,75.58,336.54Z" style="fill:#e0e0e0"></path><path d="M186.51,336.54c0,5.44,4.05,9.86,9.05,9.86s9.05-4.42,9.05-9.86-4.05-9.85-9.05-9.85S186.51,331.1,186.51,336.54Z" style="fill:#e0e0e0"></path><path d="M274.92,216.43h-17.1a4.4,4.4,0,0,0,4.4,4.4h8.3a4.4,4.4,0,0,0,4.4-4.4Z" style="fill:#f0f0f0"></path><polygon points="157.34 236.78 157.34 209.16 176.49 209.16 176.49 236.78 195.64 236.78 195.64 264.41 176.49 264.41 176.49 292.03 157.34 292.03 157.34 264.41 138.19 264.41 138.19 236.78 157.34 236.78" style="fill:#fafafa"></polygon><g id="freepik--boxes-right--inject-13"><rect x="360.83" y="321.51" width="38.43" height="35.07" transform="translate(760.09 678.09) rotate(180)" style="fill:#ebebeb"></rect><rect x="368.42" y="328.44" width="23.25" height="21.22" transform="translate(760.09 678.09) rotate(180)" style="fill:#f5f5f5"></rect><rect x="399.26" y="321.51" width="10.93" height="35.07" transform="translate(809.45 678.09) rotate(180)" style="fill:#e0e0e0"></rect><rect x="402.19" y="321.51" width="5.07" height="4.13" transform="translate(809.45 647.15) rotate(180)" style="fill:#f5f5f5"></rect><rect x="403.89" y="321.51" width="38.43" height="35.07" transform="translate(846.21 678.09) rotate(180)" style="fill:#ebebeb"></rect><rect x="411.48" y="328.44" width="23.25" height="21.22" transform="translate(846.21 678.09) rotate(180)" style="fill:#f5f5f5"></rect><rect x="442.32" y="321.51" width="10.93" height="35.07" transform="translate(895.57 678.09) rotate(180)" style="fill:#e0e0e0"></rect><rect x="445.25" y="321.51" width="5.07" height="4.13" transform="translate(895.57 647.15) rotate(180)" style="fill:#f5f5f5"></rect><rect x="382.36" y="286.44" width="38.43" height="35.07" transform="translate(803.15 607.95) rotate(180)" style="fill:#ebebeb"></rect><rect x="389.95" y="293.36" width="23.25" height="21.22" transform="translate(803.15 607.95) rotate(180)" style="fill:#f5f5f5"></rect><rect x="420.79" y="286.44" width="10.93" height="35.07" transform="translate(852.51 607.95) rotate(180)" style="fill:#e0e0e0"></rect><rect x="423.72" y="286.44" width="5.07" height="4.13" transform="translate(852.51 577.01) rotate(180)" style="fill:#f5f5f5"></rect></g><circle cx="92.99" cy="136.04" r="19.14" style="fill:#f5f5f5"></circle><circle cx="113.9" cy="139.39" r="10.25" transform="translate(-58.47 191.28) rotate(-67.5)" style="fill:#f5f5f5"></circle><circle cx="81.79" cy="148.99" r="9.6" transform="translate(-87.16 167.54) rotate(-67.5)" style="fill:#f5f5f5"></circle><circle cx="67.44" cy="135.36" r="12.96" transform="translate(-75.96 87.34) rotate(-45)" style="fill:#f5f5f5"></circle><circle cx="402.98" cy="159.83" r="23.43" transform="translate(154.84 515.31) rotate(-76.72)" style="fill:#f5f5f5"></circle><circle cx="377.38" cy="163.94" r="12.55" style="fill:#f5f5f5"></circle><circle cx="416.7" cy="175.69" r="11.75" transform="translate(149.97 540.88) rotate(-76.72)" style="fill:#f5f5f5"></circle><circle cx="434.26" cy="159" r="15.86" style="fill:#f5f5f5"></circle></g><g id="freepik--Shadow--inject-13" style="mix-blend-mode:multiply"><ellipse cx="250" cy="434.08" rx="223.82" ry="26.1" style="fill:#f5f5f5"></ellipse></g><g id="freepik--Boxes--inject-13"><rect x="256.69" y="401.02" width="60.06" height="41.05" style="fill:#FF725E"></rect><rect x="256.69" y="401.02" width="60.06" height="41.05" style="opacity:0.2;isolation:isolate"></rect><rect x="259.99" y="401.02" width="5.94" height="7.92" style="fill:#fff;opacity:0.8"></rect><polygon points="265.93 401.02 265.93 408.94 259.99 408.94 259.99 401.02 256.69 401.02 256.69 441.96 269.23 441.96 269.23 401.02 265.93 401.02" style="opacity:0.30000000000000004"></polygon><path d="M277.84,408.6v25h28v-25Zm22,16h-5v4h-5v-4h-5v-6h5v-5h5v5h5Z" style="fill:#fff;opacity:0.8"></path><rect x="203.26" y="401.02" width="60.06" height="41.05" style="fill:#FF725E"></rect><rect x="203.26" y="401.02" width="60.06" height="41.05" style="fill:#fff;opacity:0.2"></rect><rect x="206.56" y="401.02" width="5.94" height="7.92" style="fill:#fff;opacity:0.8"></rect><polygon points="212.5 401.02 212.5 408.94 206.56 408.94 206.56 401.02 203.26 401.02 203.26 441.96 215.8 441.96 215.8 401.02 212.5 401.02" style="opacity:0.30000000000000004"></polygon><path d="M224.84,408.6v25h28v-25Zm21,16h-4v4h-6v-4h-4v-6h4v-5h6v5h4Z" style="fill:#fff;opacity:0.8"></path><rect x="211.1" y="359.42" width="60.09" height="41.6" style="fill:#FF725E"></rect><rect x="214.4" y="359.42" width="5.94" height="7.92" style="fill:#fff;opacity:0.8"></rect><path d="M232.89,368v24.43h28.4V368Zm21.79,14.53h-4.62v5.28h-5.28v-5.28h-4.63v-4.62h4.63v-5.29h5.28v5.29h4.62Z" style="fill:#fff;opacity:0.8"></path><polygon points="271.19 359.42 223.64 359.42 223.64 361.4 229.15 374.6 271.19 374.6 271.19 359.42" style="opacity:0.30000000000000004"></polygon><polygon points="223.64 359.42 220.34 359.42 220.34 367.34 214.4 367.34 214.4 359.42 211.1 359.42 211.1 401.02 223.64 401.02 223.64 359.42" style="opacity:0.30000000000000004"></polygon><polygon points="211.1 359.42 223.64 359.42 218.14 372.62 205.58 372.62 211.1 359.42" style="fill:#FF725E"></polygon><polygon points="271.19 359.42 223.64 359.42 229.15 372.62 276.71 372.62 271.19 359.42" style="fill:#FF725E"></polygon></g><g id="freepik--character-2--inject-13"><path d="M352,218.89s-2.48,2.54-5.77,5.73l-.53.51c-.87.84-1.79,1.72-2.73,2.6-1.3,1.23-2.63,2.45-3.92,3.6-3.37,3-6.43,5.39-7.8,5.67-3.82.79-26,.77-28.07,1.58s-.39-5.1-.39-5.1,25.09-2.92,27.37-2.95c.92,0,3.69-3,6.67-6.57,4.42-5.31,9.32-11.89,9.32-11.89l3.21,3.74Z" style="fill:#ffaa75"></path><path d="M352,204.23a13.64,13.64,0,0,0-4.61,2.82c-1.78,1.84-13,15.06-13,15.06s6.55,5.28,10.34,6.29C344.7,228.4,352.17,210.17,352,204.23Z" style="fill:#FF725E"></path><path d="M352,204.22c.09,2.47-1.14,7.06-2.63,11.59-1.05,3.24-2.23,6.45-3.13,8.81s-1.49,3.78-1.49,3.78l-.09,0a10.17,10.17,0,0,1-1.68-.64,28.66,28.66,0,0,1-2.83-1.55c-1.19-.74-2.35-1.54-3.31-2.22-1.44-1.05-2.43-1.85-2.43-1.85s11.2-13.22,13-15.06A13.76,13.76,0,0,1,352,204.22Z" style="fill:#263238;opacity:0.30000000000000004"></path><path d="M347.84,217.11s-.91,3.85-2.18,8c-.33,1.08-.68,2.18-1.05,3.24a10.17,10.17,0,0,1-1.68-.64c-1.3,1.23-2.63,2.45-3.92,3.6a11.26,11.26,0,0,1,1.09-5.15A24.37,24.37,0,0,1,347.84,217.11Z" style="opacity:0.2;isolation:isolate"></path><polygon points="384.66 414.93 379.76 420.59 367.77 409.83 372.66 404.16 384.66 414.93" style="fill:#ffaa75"></polygon><polygon points="372.66 404.16 367.77 409.83 373.96 415.38 378.86 409.71 372.66 404.16" style="opacity:0.2;isolation:isolate"></polygon><path d="M339.71,279.36l-.12-23.61,39.27,4s2.88,17.34-1,34.52l-10.22-1.65c-6.26,17.4-21.4,61.39-17.89,70.57,4.41,11.5,27.62,41.59,27.62,41.59l-9.56,9.55s-41-36.35-43.52-60.05C322.34,336.48,334.06,294.66,339.71,279.36Z" style="fill:#263238"></path><path d="M377.55,419.38l6.4-6a.63.63,0,0,1,.79-.05l5.42,3.71a1.07,1.07,0,0,1,.27,1.49,1.29,1.29,0,0,1-.16.17c-2.1,1.91-3.73,3.19-6.33,5.62-1.6,1.5-6.27,6.19-8.48,8.26s-4.55.16-3.83-.89c3.23-4.68,5.14-8.77,5.35-11.15A1.75,1.75,0,0,1,377.55,419.38Z" style="fill:#263238"></path><path d="M376.67,421.94a2.18,2.18,0,0,1-1.26.68,1,1,0,0,1-.89-.43.53.53,0,0,1-.11-.55c.3-.84,3-1.39,3.28-1.45a.16.16,0,0,1,.18.07.17.17,0,0,1,0,.19A8.17,8.17,0,0,1,376.67,421.94Zm-1.8-.36a.38.38,0,0,0-.13.18s0,.12.06.23a.69.69,0,0,0,.58.29,3.55,3.55,0,0,0,2-1.66A6.89,6.89,0,0,0,374.87,421.58Z" style="fill:#FF725E"></path><path d="M377.84,420.49l-.06.06c-.81.21-2.95,0-3.36-.62a.54.54,0,0,1,.09-.7.92.92,0,0,1,.68-.34c1.07-.07,2.62,1.32,2.69,1.39a.18.18,0,0,1,.05.17A.13.13,0,0,1,377.84,420.49Zm-3-1.15-.07.06c-.16.15-.08.26-.06.3.26.4,1.75.65,2.67.55a4,4,0,0,0-2.16-1.06A.56.56,0,0,0,374.79,419.34Z" style="fill:#FF725E"></path><polygon points="369.73 418.08 379.81 405.38 376.42 402.47 365.73 415.47 369.73 418.08" style="fill:#FF725E"></polygon><polygon points="369.73 418.08 379.81 405.38 376.42 402.47 365.73 415.47 369.73 418.08" style="fill:#fff;opacity:0.6000000000000001;isolation:isolate"></polygon><polygon points="361.72 434.69 354.51 434.69 353.91 417.98 361.13 417.98 361.72 434.69" style="fill:#ffaa75"></polygon><path d="M353.51,433.86h8.76a.64.64,0,0,1,.62.49l1.42,6.43a1.07,1.07,0,0,1-.82,1.26,1,1,0,0,1-.24,0c-2.83,0-4.9-.22-8.46-.22-2.19,0-8.81.23-11.84.23s-3.42-3-2.18-3.26c5.56-1.22,9.75-2.9,11.53-4.49A1.7,1.7,0,0,1,353.51,433.86Z" style="fill:#263238"></path><path d="M351.12,435.12a2.16,2.16,0,0,1-1.38-.36,1,1,0,0,1-.36-.92.52.52,0,0,1,.29-.48c.8-.41,3.13,1,3.39,1.19a.15.15,0,0,1,.08.16.18.18,0,0,1-.13.15A8,8,0,0,1,351.12,435.12Zm-1.07-1.49a.41.41,0,0,0-.22,0c-.05,0-.1.07-.11.21a.67.67,0,0,0,.23.61,3.51,3.51,0,0,0,2.57.13A7.16,7.16,0,0,0,350.05,433.63Z" style="fill:#FF725E"></path><path d="M353,434.87h-.09c-.74-.41-2.18-2-2-2.76a.54.54,0,0,1,.55-.44.87.87,0,0,1,.72.22c.84.67,1,2.75,1,2.85a.21.21,0,0,1-.08.16A.14.14,0,0,1,353,434.87Zm-1.45-2.93h-.09c-.22,0-.23.13-.24.17-.1.47.82,1.68,1.57,2.23a4,4,0,0,0-.86-2.25A.54.54,0,0,0,351.52,431.94Z" style="fill:#FF725E"></path><polygon points="361.13 417.99 353.91 417.99 354.22 426.61 361.45 426.61 361.13 417.99" style="opacity:0.2;isolation:isolate"></polygon><path d="M378.74,254.66c7,36.79-16.68,90-14.71,168.9H350.84s-10.73-54.93-2.42-148.24c0,0-11.53-16-8.53-20.66C345.2,246.44,378.74,254.66,378.74,254.66Z" style="fill:#263238"></path><path d="M378.74,254.66c7,36.79-16.68,90-14.71,168.9H350.84s-10.73-54.93-2.42-148.24c0,0-11.53-16-8.53-20.66C345.2,246.44,378.74,254.66,378.74,254.66Z" style="fill:#fff;opacity:0.2"></path><polygon points="349.32 425.22 364.89 425.22 364.89 420.57 348.74 420.27 349.32 425.22" style="fill:#FF725E"></polygon><polygon points="349.32 425.22 364.89 425.22 364.89 420.57 348.74 420.27 349.32 425.22" style="fill:#fff;opacity:0.6000000000000001;isolation:isolate"></polygon><path d="M360.7,202s4.15-1.21,15.38-2.09l-18,23.76-5.68-2.57,3.26-14.07Z" style="fill:#FF725E"></path><path d="M360.7,202s4.15-1.21,15.38-2.09l-18,23.76-5.68-2.57,3.26-14.07Z" style="fill:#263238;opacity:0.30000000000000004"></path><path d="M389.44,213.53s-3.08,8.41-5.91,18.65c-.26.92-.51,1.86-.76,2.8s-.47,1.8-.69,2.71-.41,1.64-.6,2.46-.38,1.64-.55,2.46c-.14.66-.28,1.33-.41,2-.24,1.18-.46,2.36-.64,3.52-.08.43-.15.85-.21,1.28-.34,2.2-.59,4.34-.71,6.35H339.59s0-2.44.23-6.35c0-.35,0-.72.07-1.09,0-.06,0-.12,0-.19,0-.57.07-1.17.12-1.8s.1-1.13.15-1.72.12-1.3.18-2,.17-1.61.27-2.46h0c0-.21,0-.43.07-.65.07-.59.15-1.2.23-1.81.11-.88.24-1.78.37-2.71s.29-1.86.45-2.8c1.59-9.29,4.36-19.24,9.08-27.47L360.7,202s-5,11.18-4.55,19.11c0,0,9.6-12.26,19.86-21.13h0l.05-.05s9.38-.75,11,1.07S389.44,213.53,389.44,213.53Z" style="fill:#FF725E"></path><path d="M389.44,213.53s-3.08,8.41-5.91,18.65c-.25.88-.49,1.78-.73,2.68l0,.12c-.24.9-.47,1.8-.69,2.71s-.41,1.64-.6,2.46-.38,1.64-.55,2.46c-.14.66-.28,1.33-.41,2-.24,1.18-.46,2.36-.64,3.52-.08.43-.15.85-.21,1.28-.34,2.2-.59,4.34-.71,6.35H339.59s0-2.44.23-6.35c0-.35,0-.72.07-1.09,0-.06,0-.12,0-.19,0-.57.07-1.17.12-1.8s.1-1.13.15-1.72.12-1.3.18-2,.17-1.61.27-2.46h0c0-.21,0-.43.07-.65.07-.59.15-1.2.23-1.81.11-.88.24-1.78.37-2.71s.29-1.86.45-2.8c1.59-9.29,4.36-19.24,9.08-27.47L360.7,202s-5,11.18-4.55,19.11c0,0,9.6-12.26,19.86-21.13h0l.05-.05s9.38-.75,11,1.07c1.3,1.4,2,8.3,2.22,11.22C389.41,213,389.44,213.53,389.44,213.53Z" style="fill:#263238;opacity:0.9"></path><path d="M383.53,232.18c-.26.92-.51,1.86-.76,2.8s-.47,1.8-.69,2.71H340.93c.11-.88.24-1.78.37-2.71s.29-1.86.45-2.8Z" style="fill:#FF725E"></path><path d="M383.53,232.18c-.26.92-.51,1.86-.76,2.8s-.47,1.8-.69,2.71H340.93c.11-.88.24-1.78.37-2.71s.29-1.86.45-2.8Z" style="fill:#fff;opacity:0.8"></path><path d="M380.93,242.61c-.14.66-.28,1.33-.41,2-.24,1.18-.46,2.36-.64,3.52h-40c0-.57.07-1.17.12-1.8s.1-1.13.15-1.72.12-1.3.18-2Z" style="fill:#FF725E"></path><path d="M380.93,242.61c-.14.66-.28,1.33-.41,2-.24,1.18-.46,2.36-.64,3.52h-40c0-.57.07-1.17.12-1.8s.1-1.13.15-1.72.12-1.3.18-2Z" style="fill:#fff;opacity:0.8"></path><polygon points="374.38 260.27 379.39 260.19 378.96 255.07 374.38 255.07 374.38 260.27"></polygon><polygon points="373 255.07 357.57 255.07 357.57 260.57 373 260.3 373 255.07"></polygon><polygon points="356.09 255.07 339.6 255.07 339.6 260.89 356.09 260.6 356.09 255.07"></polygon><path d="M347.25,261.39h-4.36a1.45,1.45,0,0,1-1.44-1.44v-4.36a1.44,1.44,0,0,1,1.44-1.43h4.36a1.44,1.44,0,0,1,1.44,1.43V260A1.45,1.45,0,0,1,347.25,261.39Zm-4.36-6.23a.44.44,0,0,0-.44.43V260a.44.44,0,0,0,.44.44h4.36a.44.44,0,0,0,.44-.44v-4.36a.44.44,0,0,0-.44-.43Z" style="fill:#fff"></path><path d="M347,258.27h-1.92a.5.5,0,0,1-.5-.5.5.5,0,0,1,.5-.5H347a.51.51,0,0,1,.5.5A.5.5,0,0,1,347,258.27Z" style="fill:#fff"></path><path d="M373.15,189.51a45.3,45.3,0,0,0,.68,11.28s-5.7,5.6-10.62,4.54c-4.32-.93-.26-3.78-.26-3.78a9.84,9.84,0,0,0,1.6-5.71C364.45,192.42,373.15,189.51,373.15,189.51Z" style="fill:#ffaa75"></path><path d="M364.55,195.84a9.64,9.64,0,0,1-.57,3.6,8.09,8.09,0,0,0,6.84-3.57,13.26,13.26,0,0,0,2.23-4.68c0-1,.1-1.68.1-1.68S364.45,192.42,364.55,195.84Z" style="opacity:0.2;isolation:isolate"></path><path d="M379,170.27s1.65,13.55-5.42,23.1a11.59,11.59,0,0,1-5.66-10.1C367.9,176.13,379,170.27,379,170.27Z" style="fill:#263238"></path><path d="M374.38,179.19c0,6.93.31,11-3,14.72-4.93,5.63-13.64,2.94-15.67-3.84-1.84-6.15-1.48-16.41,5.12-19.55a9.44,9.44,0,0,1,12.6,4.42A9.32,9.32,0,0,1,374.38,179.19Z" style="fill:#ffaa75"></path><polygon points="373.61 188.57 369.34 192.2 368.38 191.97 369.17 191.32 373.19 188.57 373.61 187.71 373.61 188.57" style="fill:#FF725E"></polygon><polygon points="373.61 188.57 369.34 192.2 368.38 191.97 369.17 191.32 373.19 188.57 373.61 187.71 373.61 188.57" style="fill:#fff;opacity:0.8"></polygon><path d="M363.7,181.8c0,.57-.24,1-.61,1.06s-.69-.42-.72-1,.24-1,.61-1S363.67,181.25,363.7,181.8Z" style="fill:#2e353a"></path><path d="M357.35,182.17c0,.56-.24,1-.61,1.05s-.69-.42-.72-1,.24-1,.61-1.06S357.32,181.6,357.35,182.17Z" style="fill:#2e353a"></path><path d="M359.72,182.25a20.3,20.3,0,0,1-2.42,4.95,3.28,3.28,0,0,0,2.72.36Z" style="fill:#ed893e"></path><path d="M365.73,179a.29.29,0,0,0,.16,0,.35.35,0,0,0,0-.47,3.34,3.34,0,0,0-2.77-1.21.33.33,0,0,0-.28.37.32.32,0,0,0,.37.29h0a2.63,2.63,0,0,1,2.17,1A.32.32,0,0,0,365.73,179Z" style="fill:#2e353a"></path><path d="M354.73,179.75a.36.36,0,0,0,.25-.2,2.64,2.64,0,0,1,1.75-1.6.33.33,0,1,0-.12-.64,3.3,3.3,0,0,0-2.27,2,.32.32,0,0,0,.17.42h0A.31.31,0,0,0,354.73,179.75Z" style="fill:#2e353a"></path><path d="M362.87,190.3a4.93,4.93,0,0,1-.73.27.16.16,0,0,1-.2-.09h0a.16.16,0,0,1,.11-.19,4.2,4.2,0,0,0,2.81-2.54.16.16,0,0,1,.19-.11.15.15,0,0,1,.11.19A4.36,4.36,0,0,1,362.87,190.3Z" style="fill:#263238"></path><path d="M352.51,169.8c0,2.37,2.56,3.88,5.59,4.29s9.11-.53,9.8,0,.8,5.77,1.85,6.23,2.27,3.46,2.65,4.47,3.56-.87,4.59-3.6,2.37-9.56,2-10.92-3-1.2-3.69-2-3-3.31-5.66-4C364.39,163.08,352.51,165,352.51,169.8Z" style="fill:#263238"></path><polyline points="367.19 185.06 373.1 182.25 372.01 183.81 367.19 186.73" style="fill:#FF725E"></polyline><polyline points="367.19 185.06 373.1 182.25 372.01 183.81 367.19 186.73" style="fill:#fff;opacity:0.8"></polyline><path d="M358.55,185.06a11.54,11.54,0,0,0-3.61,1.09,24.25,24.25,0,0,0,.79,3.92,9.68,9.68,0,0,0,6.57,6.52c4.41,0,7.33-4.39,7.33-4.39a40.79,40.79,0,0,1-2.44-7.14C364.74,185.5,359.88,185.06,358.55,185.06Z" style="fill:#FF725E"></path><path d="M358.55,185.06a11.54,11.54,0,0,0-3.61,1.09,24.25,24.25,0,0,0,.79,3.92,9.68,9.68,0,0,0,6.57,6.52c4.41,0,7.33-4.39,7.33-4.39a40.79,40.79,0,0,1-2.44-7.14C364.74,185.5,359.88,185.06,358.55,185.06Z" style="fill:#fff;opacity:0.5"></path><path d="M378.12,185.44a6.59,6.59,0,0,1-3.92,3.13c-2.23.62-3.34-1.37-2.73-3.47.56-1.88,2.38-4.48,4.61-4.18A2.94,2.94,0,0,1,378.12,185.44Z" style="fill:#ffaa75"></path><rect x="289.34" y="224.77" width="56.56" height="42.7" transform="translate(30.07 -34.54) rotate(6.53)" style="fill:#FF725E"></rect><path d="M292,221.69l-4.86,42.42,34,3.89,4.86-42.42Zm24.89,39.59-24.12-2.76,3.45-30.11,24.12,2.76Z" style="opacity:0.30000000000000004"></path><path d="M296.17,228.41l-3.45,30.11,24.12,2.76,3.45-30.11Zm16.46,20L308.7,248l-.74,6.51-4.49-.51.75-6.51-3.93-.45.65-5.7,3.93.45.74-6.51,4.49.51-.75,6.51,3.93.45Z" style="fill:#fff;opacity:0.8"></path><rect x="332.86" y="226.89" width="8.6" height="7.57" transform="translate(28.44 -36.87) rotate(6.53)" style="fill:#fff;opacity:0.8"></rect><path d="M389.44,213.53s-3.08,8.41-5.91,18.65c-.25.88-.49,1.78-.73,2.68-3.31-3.44-5.36-12-5.36-12s7.78-9.08,11.9-10.59C389.41,213,389.44,213.53,389.44,213.53Z" style="opacity:0.2;isolation:isolate"></path><path d="M380.76,210.58s-8.13,21.48-10.32,22.13-25.52,10.34-25.52,10.34,0,6.12,1.77,4.79,23.1-7.4,26.56-9.2,15-23.1,15-23.1Z" style="fill:#ffaa75"></path><path d="M372.52,225l9.49,4.79s9.47-14.68,9.49-21.51c0-4-3.64-10.8-8.19-6.33C381.58,203.61,372.52,225,372.52,225Z" style="fill:#FF725E"></path><path d="M372.52,225l9.49,4.79s9.47-14.68,9.49-21.51c0-4-3.64-10.8-8.19-6.33C381.58,203.61,372.52,225,372.52,225Z" style="fill:#263238;opacity:0.30000000000000004"></path><path d="M347.48,248l-1.32-6.16-2.63.75a26.26,26.26,0,0,0-3.46-.89c-2.54,0-8.36,4.11-8.36,4.11s3.88,6.42,4.81,7,8.34-3.31,9.19-4.51Z" style="fill:#FF725E"></path><path d="M347.48,248l-1.32-6.16-2.63.75a26.26,26.26,0,0,0-3.46-.89c-2.54,0-8.36,4.11-8.36,4.11s3.88,6.42,4.81,7,8.34-3.31,9.19-4.51Z" style="fill:#fff;opacity:0.6000000000000001"></path></g><g id="freepik--character-1--inject-13"><polygon points="141.71 427.59 137.75 436.88 128.48 435.73 121.44 434.85 112.75 433.77 117.14 429.89 124.08 429.24 130.75 428.62 141.71 427.59" style="fill:#ffc2bc;isolation:isolate"></polygon><polygon points="130.75 428.62 128.48 435.73 121.44 434.85 124.08 429.24 130.75 428.62" style="opacity:0.2;isolation:isolate"></polygon><path d="M119.82,429.3c.45.46-5.41,5.71-5.41,5.71s-6.9,0-11,2.59-4.25-1.27-.57-5l9.09-9.26C114.56,420.65,115.2,424.54,119.82,429.3Z" style="fill:#263238"></path><path d="M114,434.86l.08,0h.06l.06,0h0a.15.15,0,0,1,.05.06c0,.09.88,1.84.46,2.9a1.24,1.24,0,0,1-.74.71.72.72,0,0,1-.83-.09c-.28-.31-.18-1,0-1.7a3.26,3.26,0,0,1-1.37,1.13.82.82,0,0,1-.67-.08.76.76,0,0,1-.47-.72,1.12,1.12,0,0,1,.35-.63A9.77,9.77,0,0,1,114,434.86Zm-.41.6c-1.17.49-2.48,1.21-2.52,1.69,0,0,0,.17.26.33a.42.42,0,0,0,.35,0,1.94,1.94,0,0,0,.77-.54A10.5,10.5,0,0,0,113.6,435.46Zm.73,2.25a3.46,3.46,0,0,0-.26-2.15c-.5,1.14-.85,2.37-.61,2.64.07.08.27,0,.38,0a.87.87,0,0,0,.32-.2A.73.73,0,0,0,114.33,437.71Z" style="fill:#FF725E"></path><path d="M203.07,428.1c-1.78,7.51-7.3,9.92-12.84,10.3-6.74.47-66.2-2-66.2-2l2.94-9.2,52.26-3.1-29.18-15.44s-27.26-3.35-25.49-22.89a78,78,0,0,1,5.55-21.6c.22-.54.45-1.08.67-1.61l28.1-2.17.23,1.35,1.77,10.09,3.35,8.48S206.87,412.12,203.07,428.1Z" style="fill:#FF725E"></path><path d="M203.07,428.1c-1.78,7.51-7.3,9.92-12.84,10.3-6.74.47-66.2-2-66.2-2l2.94-9.2,52.26-3.1-29.18-15.44s-27.26-3.35-25.49-22.89a78,78,0,0,1,5.55-21.6c.22-.54.45-1.08.67-1.61l28.1-2.17.23,1.35,1.77,10.09,3.35,8.48S206.87,412.12,203.07,428.1Z" style="opacity:0.30000000000000004;isolation:isolate"></path><path d="M165.53,381.26l-35.92,18.35c7.47,7.4,20.44,9,20.44,9l29.18,15.44L127,427.15l-2.94,9.2s59.46,2.52,66.2,2c5.54-.38,11.06-2.79,12.84-10.3C206.47,413.79,172.65,386.76,165.53,381.26Z" style="opacity:0.2;isolation:isolate"></path><path d="M170.89,345.14s7,15.18,8.34,17.42,29.33-.83,29.33-.83V358s-24.6,2.28-25.1.89-5.71-16.1-5.71-16.1Z" style="fill:#ffc2bc"></path><path d="M199.71,357.93l-.11,5.13,2.62.36,3.1,1.54,9.82-.58,3.53-6.91s-11.8-3.4-12.73-3.06-3,3.52-3,3.52Z" style="fill:#FF725E"></path><path d="M199.71,357.93l-.11,5.13,2.62.36,3.1,1.54,9.82-.58,3.53-6.91s-11.8-3.4-12.73-3.06-3,3.52-3,3.52Z" style="fill:#fff;opacity:0.6000000000000001"></path><path d="M156.46,308.75s-2.84,8.83-7.74,14.78c-5.54,6.71,8.15,15.21,19.61,9.76a16.94,16.94,0,0,0,9.41-14.76C178.25,307.55,162.2,302.17,156.46,308.75Z" style="fill:#263238"></path><path d="M173.45,333.34c-2.69-1.4-10.12,9.23-10.12,9.23s7.82,8.34,9.44,12.44l9.53-3S178.11,335.76,173.45,333.34Z" style="fill:#FF725E"></path><path d="M182.3,352l-9.53,3a28.44,28.44,0,0,0-3.81-5.88c-2.66-3.39-5.63-6.56-5.63-6.56a59.49,59.49,0,0,1,5.47-6.67c1.79-1.8,3.59-3.12,4.65-2.57C178.11,335.76,182.3,352,182.3,352Z" style="fill:#fff;opacity:0.7000000000000001"></path><path d="M169,349.13c-2.66-3.39-5.63-6.56-5.63-6.56a59.49,59.49,0,0,1,5.47-6.67C169.83,338.09,170.54,343.37,169,349.13Z" style="opacity:0.2;isolation:isolate"></path><path d="M136.94,365.06s-3.18,17.6-12.38,20.66a92.88,92.88,0,0,1,5.54-21.59Z" style="opacity:0.2"></path><path d="M164.23,380.26c-7.37-3.59-7.24-17.75-7.24-17.75l2.12-.82,1.77,10.09Z" style="opacity:0.2"></path><path d="M176.41,432.29c0-.64,7.87-.3,7.87-.3s4.93,4.82,9.65,5.82,2.16,3.88-3.09,4l-13,.27C174.13,442.15,176.39,438.92,176.41,432.29Z" style="fill:#263238"></path><path d="M184.46,432.38l-.07,0h0l0-.05h0a.15.15,0,0,1,0-.07h0a.11.11,0,0,1,0-.08c0-.1.65-1.93,1.7-2.39a1.21,1.21,0,0,1,1,0c.36.17.54.38.53.65,0,.42-.57.84-1.2,1.2a3.2,3.2,0,0,1,1.76.15.88.88,0,0,1,.44.53.77.77,0,0,1-.18.84,1.15,1.15,0,0,1-.69.2A9.83,9.83,0,0,1,184.46,432.38Zm.71-.14c1.17.46,2.62.87,3,.55,0,0,.13-.11,0-.41a.44.44,0,0,0-.23-.27A2.07,2.07,0,0,0,187,432,9.25,9.25,0,0,0,185.17,432.24Zm1.05-2.12a3.37,3.37,0,0,0-1.31,1.71c1.15-.46,2.26-1.1,2.27-1.45,0-.11-.17-.21-.28-.26a1,1,0,0,0-.37-.08A.89.89,0,0,0,186.22,430.12Z" style="fill:#FF725E"></path><path d="M131.6,361.91l27.74,3.24S161.6,350.33,175,334.5a95.29,95.29,0,0,0-9.67-6,109.35,109.35,0,0,0-11.24-5.34c-5.13-1.95-11.3-3.7-11.3-3.7S134.59,335,131.6,361.91Z" style="fill:#FF725E"></path><path d="M175,334.5c-13.43,15.83-15.69,30.65-15.69,30.65l-27.74-3.24a157,157,0,0,1,5-25.63,116.83,116.83,0,0,1,4.36-12.62c1.14-2.74,1.9-4.17,1.9-4.17s6.17,1.75,11.3,3.7a106.35,106.35,0,0,1,11.24,5.34A95.29,95.29,0,0,1,175,334.5Z" style="fill:#fff;opacity:0.6000000000000001;isolation:isolate"></path><path d="M148.05,365.86a1.42,1.42,0,1,0,1.63-1.17A1.43,1.43,0,0,0,148.05,365.86Z" style="fill:#fff;opacity:0.6000000000000001;isolation:isolate"></path><polygon points="131.49 361.73 129.85 364.43 159.61 367.74 159.57 364.1 131.49 361.73" style="fill:#263238;isolation:isolate"></polygon><path d="M147.25,363.19l-.18,3.3a.67.67,0,0,0,.61.7l4.38.36a.67.67,0,0,0,.72-.62l.21-3.25a.67.67,0,0,0-.6-.71l-4.41-.41A.67.67,0,0,0,147.25,363.19Z" style="fill:#fff"></path><polygon points="139.94 362.41 138.98 366.16 137.91 365.99 138.7 362.2 139.94 362.41" style="fill:#FF725E"></polygon><polygon points="155.69 363.77 155.47 367.83 156.45 367.99 156.78 363.78 155.69 363.77" style="fill:#FF725E"></polygon><g style="opacity:0.30000000000000004;isolation:isolate"><polygon points="139.94 362.41 138.98 366.16 137.91 365.99 138.7 362.2 139.94 362.41"></polygon><polygon points="155.69 363.77 155.47 367.83 156.45 367.99 156.78 363.78 155.69 363.77"></polygon></g><path d="M165.86,324.18a7.92,7.92,0,0,0-2,3.74,2,2,0,0,0,.48,1.81c-.57,3.15-4.8,2.78-4.8,2.78-5-5.14-4.82-8.87-4.82-8.87a8,8,0,0,0,6.12-4.31,15.92,15.92,0,0,0,1.74-4.37l5.73,6.59A24.12,24.12,0,0,0,165.86,324.18Z" style="fill:#ffc2bc;isolation:isolate"></path><path d="M168.36,321.55a24.12,24.12,0,0,0-2.5,2.63,7.92,7.92,0,0,0-2,3.74,11.79,11.79,0,0,1-3-8.59,15.92,15.92,0,0,0,1.74-4.37Z" style="opacity:0.2;isolation:isolate"></path><path d="M162.94,306.63c-2.07,7.27-3.11,10.3-.81,15.21,3.47,7.39,12.84,8.35,17,1.85,3.78-5.85,6.53-16.73.58-22a10.3,10.3,0,0,0-16.81,5Z" style="fill:#ffc2bc;isolation:isolate"></path><path d="M160.84,316.92c0,.33,0,.65.08,1l3.69,2.9h1.2l-.9-1.45Z" style="fill:#FF725E"></path><path d="M160.84,316.92c0,.33,0,.65.08,1l3.69,2.9h1.2l-.9-1.45Z" style="fill:#fff;opacity:0.8"></path><path d="M179.45,303.92s3.59,3.75,3.72,7.87a14.59,14.59,0,0,0,4.43-6.61c.75-2.69-.92-5.84-5.37-6.79C182.23,298.39,178,300.28,179.45,303.92Z" style="fill:#263238"></path><path d="M179.45,303.92a41,41,0,0,1-15.77,8.92l-8.14-1.57a46.45,46.45,0,0,1,4.35-13.84c1.32-2.52,8.26-6.66,14.13-4.41a23.82,23.82,0,0,1,8.21,5.37A3.77,3.77,0,0,1,179.45,303.92Z" style="fill:#263238"></path><polygon points="167.21 314.31 162.6 311.08 162.6 311.79 167.21 316.27 167.21 314.31" style="fill:#FF725E"></polygon><polygon points="167.21 314.31 162.6 311.08 162.6 311.79 167.21 316.27 167.21 314.31" style="fill:#fff;opacity:0.8"></polygon><path d="M177.77,316.27a16.4,16.4,0,0,0,.25,4.48,2.6,2.6,0,0,1-2.14-.58Z" style="fill:#ed893e"></path><path d="M173.54,309.55a.38.38,0,0,1-.09-.13.31.31,0,0,1,.16-.39h0a3.53,3.53,0,0,1,3.22.23.31.31,0,0,1,.07.42.3.3,0,0,1-.41.08,3,3,0,0,0-2.67-.17A.31.31,0,0,1,173.54,309.55Z" style="fill:#263238"></path><path d="M182.67,313.39a.18.18,0,0,1-.07-.1,2.38,2.38,0,0,0-1.65-1.42.24.24,0,0,1-.2-.28h0a.25.25,0,0,1,.28-.2,2.9,2.9,0,0,1,2,1.71.23.23,0,0,1-.11.32.24.24,0,0,1-.27,0Z" style="fill:#263238"></path><path d="M173.21,312.74c-.31.62-.22,1.3.2,1.5s1-.14,1.29-.78.22-1.3-.19-1.51S173.52,312.1,173.21,312.74Z" style="fill:#263238"></path><path d="M179.61,315.55c-.27.55-.19,1.14.17,1.31s.86-.13,1.13-.68.2-1.14-.16-1.31S179.88,315,179.61,315.55Z" style="fill:#263238"></path><path d="M180.58,314.82l1.5.26S180.9,315.78,180.58,314.82Z" style="fill:#263238"></path><path d="M174.31,311.9l1.73.3S174.69,313,174.31,311.9Z" style="fill:#263238"></path><path d="M173.91,322.79a6.17,6.17,0,0,0,.88.55.18.18,0,0,0,.24-.08h0A.19.19,0,0,0,175,323a4.91,4.91,0,0,1-2.68-3.51.18.18,0,1,0-.36,0A5.11,5.11,0,0,0,173.91,322.79Z" style="fill:#263238"></path><path d="M159.14,313.91a5.52,5.52,0,0,0,2.33,3.52c1.61,1.07,3-.23,3.06-2.06.05-1.65-.74-4.2-2.6-4.53a2.49,2.49,0,0,0-2.84,2.09A2.69,2.69,0,0,0,159.14,313.91Z" style="fill:#ffc2bc;isolation:isolate"></path><path d="M177.72,317.81a62.45,62.45,0,0,0-10.51-3.5,15.88,15.88,0,0,0-2.6,6.48s2.3,5.06,6.53,7.22a9.18,9.18,0,0,0,8-4.32,24.57,24.57,0,0,0,1.76-3.28A15.4,15.4,0,0,0,177.72,317.81Z" style="fill:#FF725E"></path><path d="M177.72,317.81a62.45,62.45,0,0,0-10.51-3.5,15.88,15.88,0,0,0-2.6,6.48s2.3,5.06,6.53,7.22a9.18,9.18,0,0,0,8-4.32,24.57,24.57,0,0,0,1.76-3.28A15.4,15.4,0,0,0,177.72,317.81Z" style="fill:#fff;opacity:0.5"></path><path d="M143.38,338.72c-2.87,1-5.15-.43-6.82-2.44a116.83,116.83,0,0,1,4.36-12.62C144,328.81,148,337.08,143.38,338.72Z" style="opacity:0.2;isolation:isolate"></path><path d="M165.36,328.53a16,16,0,0,1-6.82,11.07c-1.58-8-6.59-18.16-6.59-18.16L144,319.26s2,11.91-.4,17.19-8.83,4.38-8.83,4.38l-1.25,6.73-.68,3.64-.8,4.32-.88,4.75-.42,2.24,28.56,2.64s.18-.5.48-1.3c.37-1,.92-2.49,1.5-4,.45-1.22.93-2.48,1.35-3.59.31-.8.59-1.53.82-2.1.15-.38.43-.95.8-1.66,2.77-5.21,10.74-18,10.74-18C169.88,329.46,165.36,328.53,165.36,328.53Z" style="fill:#263238"></path><path d="M131.2,360.27l28.62,3.58c.37-1,.92-2.49,1.5-4l-29.24-4.29Z" style="fill:#fff;opacity:0.8"></path><path d="M133.56,347.56l-.68,3.64,29.79,5c.31-.8.59-1.53.82-2.1.15-.38.43-.95.8-1.66Z" style="fill:#fff;opacity:0.8"></path><path d="M152,337.24s2.39,9.12,4.18,10.42c.45.33,27.6-1.69,27.6-1.69l.79,3.23S159.77,355.14,153,354c-4.2-.73-10.27-19.63-10.27-19.63Z" style="fill:#ffc2bc;isolation:isolate"></path><path d="M142.82,319.49c-5.2-2-8.41,9.68-1.16,23.27l13.11-4.6S149.11,321.92,142.82,319.49Z" style="fill:#FF725E"></path><path d="M142.82,319.49c-5.2-2-8.41,9.68-1.16,23.27l13.11-4.6S149.11,321.92,142.82,319.49Z" style="fill:#fff;opacity:0.7000000000000001"></path><polygon points="187.73 335.71 185.08 342.08 188.44 345.14 194.89 343.5 197.54 337.97 196.69 337.08 187.73 335.71" style="fill:#FF725E"></polygon><polygon points="186.09 343 188.44 345.14 194.89 343.5 197.54 337.97 188.56 336.72 186.09 343" style="opacity:0.5"></polygon><polygon points="187.73 335.71 188.56 336.72 197.54 337.97 196.69 337.08 187.73 335.71" style="fill:#fff;opacity:0.30000000000000004"></polygon><path d="M179.23,345.25l.57,5.11h2.65l3.28,1.11,9.65-1.9,2.57-7.32s-12.15-1.78-13-1.32-2.47,3.89-2.47,3.89Z" style="fill:#FF725E"></path><path d="M179.23,345.25l.57,5.11h2.65l3.28,1.11,9.65-1.9,2.57-7.32s-12.15-1.78-13-1.32-2.47,3.89-2.47,3.89Z" style="fill:#fff;opacity:0.6000000000000001"></path><polygon points="193.3 410.91 191.93 413.85 186.26 425.95 181.66 435.78 177.09 435.65 179.48 424.94 182.2 412.7 182.81 409.98 193.3 410.91" style="fill:#ffc2bc;isolation:isolate"></polygon><polygon points="191.93 413.85 186.26 425.95 179.48 424.94 182.2 412.7 191.93 413.85" style="opacity:0.2;isolation:isolate"></polygon><path d="M125.07,384s-2.79,20,11.87,21.73c24.07,2.79,46-21.31,48.73-21.31S178.45,423,178.45,423l10.78,1.38s18.46-47.68,13.55-57.77S142.08,384,125.07,384Z" style="fill:#FF725E"></path><path d="M125.07,384s-2.79,20,11.87,21.73c24.07,2.79,46-21.31,48.73-21.31S178.45,423,178.45,423l10.78,1.38s18.46-47.68,13.55-57.77S142.08,384,125.07,384Z" style="opacity:0.30000000000000004;isolation:isolate"></path></g></svg>